<svg width="18" height="18" viewBox="0 0 18 18" fill="none" xmlns="http://www.w3.org/2000/svg">
<g clip-path="url(#clip0_745_1378)">
<path d="M11.2838 1.31836e-05C11.2635 -0.000736816 6.7365 -0.000736816 6.71625 1.31836e-05C4.66425 0.0180132 3 1.69351 3 3.74926V14.2493C3 16.317 4.68225 17.9993 6.75 17.9993H11.25C13.3177 17.9993 15 16.317 15 14.2493V3.75001C15 1.69351 13.3358 0.0187632 11.2838 1.31836e-05ZM13.5 14.2493C13.5 15.4898 12.4905 16.4993 11.25 16.4993H6.75C5.5095 16.4993 4.5 15.4898 4.5 14.2493V3.75001C4.5 2.66026 5.2785 1.74976 6.30825 1.54351L6.82875 2.58526C6.9555 2.83951 7.21575 3.00001 7.5 3.00001H10.5C10.7842 3.00001 11.0438 2.83951 11.1713 2.58526L11.6917 1.54351C12.7215 1.74901 13.5 2.66026 13.5 3.75001V14.2493ZM9.75 14.9993H8.25C7.836 14.9993 7.5 14.6633 7.5 14.2493C7.5 13.8353 7.836 13.4993 8.25 13.4993H9.75C10.164 13.4993 10.5 13.8353 10.5 14.2493C10.5 14.6633 10.164 14.9993 9.75 14.9993Z" fill="#1EAEA3"/>
</g>
<defs>
<clipPath id="clip0_745_1378">
<rect width="18" height="18" fill="white"/>
</clipPath>
</defs>
</svg>
