<svg width="18" height="18" viewBox="0 0 18 18" fill="none" xmlns="http://www.w3.org/2000/svg">
<g clip-path="url(#clip0_745_1076)">
<path d="M17.25 18H0.75C0.3375 18 0 17.6625 0 17.25C0 16.8375 0.3375 16.5 0.75 16.5H17.25C17.6625 16.5 18 16.8375 18 17.25C18 17.6625 17.6625 18 17.25 18ZM11.0775 14.145L15.84 9.08249C16.4925 8.42999 16.68 7.49999 16.3275 6.65249C15.975 5.80499 15.1875 5.27249 14.265 5.26499H12.75V2.24249C12.7575 0.989993 11.73 -0.00750732 10.485 -0.00750732H7.5C6.255 -0.00750732 5.25 0.997493 5.25 2.24249V5.24249H3.8475C2.97 5.24249 2.1225 5.69999 1.74 6.48749C1.3125 7.37249 1.485 8.36999 2.145 9.03749L6.8625 14.1375C7.44 14.715 8.205 15.0075 8.97 15.0075C9.735 15.0075 10.4925 14.715 11.0775 14.1375V14.145Z" fill="#919191"/>
</g>
<defs>
<clipPath id="clip0_745_1076">
<rect width="18" height="18" fill="white"/>
</clipPath>
</defs>
</svg>
