<svg width="16" height="16" viewBox="0 0 16 16" fill="none" xmlns="http://www.w3.org/2000/svg">
<path d="M13.625 6.125H9.875V2.375C9.875 1.87772 9.67746 1.40081 9.32583 1.04917C8.97419 0.697544 8.49728 0.5 8 0.5C7.50272 0.5 7.02581 0.697544 6.67417 1.04917C6.32254 1.40081 6.125 1.87772 6.125 2.375V6.125H2.375C1.87772 6.125 1.40081 6.32254 1.04917 6.67417C0.697544 7.02581 0.5 7.50272 0.5 8C0.5 8.49728 0.697544 8.97419 1.04917 9.32583C1.40081 9.67746 1.87772 9.875 2.375 9.875H6.125V13.625C6.125 14.1223 6.32254 14.5992 6.67417 14.9508C7.02581 15.3025 7.50272 15.5 8 15.5C8.49728 15.5 8.97419 15.3025 9.32583 14.9508C9.67746 14.5992 9.875 14.1223 9.875 13.625V9.875H13.625C14.1223 9.875 14.5992 9.67746 14.9508 9.32583C15.3025 8.97419 15.5 8.49728 15.5 8C15.5 7.50272 15.3025 7.02581 14.9508 6.67417C14.5992 6.32254 14.1223 6.125 13.625 6.125Z" fill="#919191"/>
</svg>
