<?xml version="1.0" standalone="no"?>
<!DOCTYPE svg PUBLIC "-//W3C//DTD SVG 20010904//EN"
 "http://www.w3.org/TR/2001/REC-SVG-20010904/DTD/svg10.dtd">
<svg version="1.0" xmlns="http://www.w3.org/2000/svg"
 width="640.000000pt" height="640.000000pt" viewBox="0 0 640.000000 640.000000"
 preserveAspectRatio="xMidYMid meet">
<metadata>
Created by potrace 1.16, written by Peter Selinger 2001-2019
</metadata>
<g transform="translate(0.000000,640.000000) scale(0.100000,-0.100000)"
fill="#000000" stroke="none">
<path d="M0 5480 l0 -920 183 0 c177 0 183 1 202 23 11 12 22 40 26 62 6 37 7
38 8 8 0 -17 -3 -43 -9 -57 -5 -14 -6 -26 -1 -26 22 0 28 118 6 126 -17 7 -21
34 -5 34 6 0 10 13 10 30 0 24 -5 31 -26 36 -19 5 -22 9 -13 15 8 5 17 3 21
-4 4 -7 7 3 7 23 0 27 -2 30 -8 15 -6 -16 -9 -13 -14 15 -3 19 -9 44 -13 54
-5 14 -4 17 4 12 7 -4 12 -17 12 -28 0 -12 3 -19 6 -16 3 3 -9 76 -26 162 -17
91 -30 185 -29 224 1 85 -19 191 -86 462 -67 268 -100 429 -88 441 17 17 207
51 243 44 19 -4 82 -8 140 -9 58 0 111 -5 119 -10 19 -12 9 -87 -27 -209 l-29
-96 29 -43 c57 -87 109 -275 149 -541 15 -101 26 -151 31 -140 5 11 6 7 3 -11
-9 -41 6 -147 16 -121 6 16 8 16 8 3 1 -9 4 -25 7 -35 5 -15 4 -15 -5 -3 -9
13 -11 13 -11 -2 0 -10 5 -18 11 -18 5 0 7 -5 4 -10 -9 -14 15 -82 34 -98 9
-8 10 -10 2 -6 -14 7 -11 -7 16 -76 13 -34 11 -14 -4 40 -7 25 -6 25 13 6 10
-11 19 -24 20 -30 0 -6 2 -20 3 -31 l2 -20 9 20 c8 19 9 19 9 -2 1 -17 -5 -23
-19 -23 -16 0 -20 -6 -19 -32 1 -18 4 -44 8 -58 l7 -25 8 23 c4 12 9 32 10 45
2 12 6 29 9 37 21 63 27 101 17 119 -7 13 -7 22 0 26 5 3 11 -2 12 -12 1 -15
14 115 21 209 1 14 5 24 8 22 4 -2 9 11 12 29 3 17 23 158 45 312 51 350 65
426 103 547 25 83 28 103 19 140 -19 82 -17 85 53 92 34 4 88 14 119 22 l58
15 86 -36 c48 -20 112 -39 142 -43 l56 -7 18 -70 c10 -38 20 -84 22 -101 2
-16 13 -61 25 -98 35 -113 60 -257 101 -582 22 -171 44 -322 49 -335 l10 -24
1 25 c1 23 2 23 10 5 5 -11 9 -29 9 -40 1 -17 -1 -18 -10 -5 -8 11 -9 8 -4
-14 3 -15 13 -35 20 -43 8 -8 15 -24 14 -36 -1 -20 -2 -20 -9 3 -14 38 0 -65
16 -130 8 -30 14 -63 15 -75 0 -20 0 -20 9 0 12 28 12 47 0 40 -6 -3 -10 3
-10 14 0 10 -3 26 -6 35 -4 10 -1 16 9 16 9 0 18 -8 20 -17 2 -10 3 2 1 27 -3
34 -1 40 6 25 7 -15 8 -10 5 20 -4 32 -3 36 5 20 8 -16 9 -11 5 20 -4 25 -2
35 3 27 7 -10 11 -8 15 10 10 34 7 57 -3 33 -5 -11 -9 -14 -9 -7 -1 7 -7 10
-13 7 -7 -4 -3 2 10 13 12 11 22 31 22 45 0 14 11 81 24 149 14 68 32 182 41
253 49 391 101 618 177 771 20 41 21 41 87 48 118 11 195 7 220 -10 17 -12 26
-13 34 -5 6 6 28 11 49 11 l38 0 0 -69 c0 -40 -5 -73 -11 -77 -6 -3 -35 -44
-64 -89 -30 -46 -68 -99 -85 -118 -17 -20 -26 -38 -21 -41 5 -4 23 13 40 38
45 65 86 96 128 96 l36 0 -6 -147 c-6 -161 -30 -301 -54 -318 -11 -9 -14 -29
-11 -92 2 -45 0 -79 -4 -77 -17 11 -84 -182 -75 -217 3 -11 2 -17 -2 -14 -9 5
-23 -53 -56 -230 -27 -139 -30 -178 -11 -105 11 42 12 39 12 -63 0 -59 3 -109
6 -112 3 -3 184 -5 404 -6 l399 0 2 77 c1 52 6 80 15 85 8 5 9 9 2 9 -17 0
-23 33 -14 72 5 21 9 26 10 13 l1 -20 9 20 c8 18 9 17 9 -7 1 -16 -3 -28 -9
-28 -5 0 -10 -5 -10 -11 0 -5 4 -8 9 -4 5 3 11 -9 13 -27 2 -18 7 75 11 207 7
201 12 250 29 304 18 57 20 79 14 185 -3 67 -9 187 -13 269 l-6 147 -61 0
c-34 0 -122 -14 -196 -31 -74 -16 -168 -33 -208 -36 l-74 -6 5 199 c3 109 8
207 12 217 8 20 68 23 124 7 26 -7 39 -6 50 4 57 48 175 59 451 41 124 -8 400
-20 613 -26 213 -7 390 -16 393 -20 3 -5 -6 -14 -20 -21 -30 -13 -35 -48 -10
-69 8 -7 13 -21 11 -30 -3 -10 1 -23 9 -30 9 -7 14 -31 14 -61 l0 -50 -40 7
-40 7 15 -36 c8 -19 15 -38 15 -41 0 -13 -88 -4 -100 10 -24 29 -68 56 -75 45
-3 -5 5 -14 19 -20 27 -10 36 -22 14 -17 -7 1 -15 -13 -18 -33 -4 -30 -9 -35
-40 -41 -19 -3 -64 -20 -100 -38 -65 -31 -110 -40 -110 -21 0 13 -39 13 -80
-1 -24 -9 -34 -9 -39 0 -4 6 -22 16 -40 21 -31 9 -33 8 -27 -13 21 -84 27
-241 22 -562 -4 -198 -2 -365 3 -385 8 -33 9 -33 10 -7 1 16 5 25 11 22 5 -3
13 6 16 22 6 24 8 25 14 7 4 -10 11 -48 15 -83 7 -61 7 -63 -14 -56 -24 7 -25
-1 -15 -104 l7 -61 381 2 381 3 3 39 c2 25 0 36 -8 31 -6 -3 -10 -3 -9 2 1 4
1 20 0 36 -1 20 -6 27 -21 27 -17 0 -20 7 -20 50 0 37 4 50 15 50 8 0 19 15
24 33 8 27 10 17 12 -58 1 -49 1 -99 0 -109 -1 -11 1 -17 5 -14 3 4 5 112 5
240 -2 230 -13 364 -33 402 -7 13 -7 41 2 91 11 64 10 77 -4 106 -14 29 -15
48 -6 154 5 66 11 147 13 179 2 33 9 62 15 64 7 2 12 19 12 38 0 19 5 34 10
34 15 0 12 26 -7 81 -16 45 -16 49 0 67 15 16 16 31 11 89 l-7 70 33 6 c58 12
97 8 124 -14 14 -11 26 -26 26 -32 0 -8 28 -12 93 -12 50 0 106 -2 122 -5 28
-5 30 -3 33 28 4 41 17 41 101 0 82 -39 142 -43 156 -10 12 27 28 28 69 3 17
-10 41 -22 54 -26 19 -5 22 -3 22 18 0 17 7 27 23 31 33 9 137 7 182 -4 22 -5
83 -14 135 -20 76 -8 106 -8 150 4 36 9 59 11 67 5 7 -6 13 -6 17 -1 6 9 56
-4 84 -21 8 -6 12 -41 12 -115 l0 -108 -45 -37 c-39 -33 -44 -41 -38 -67 4
-20 1 -30 -7 -30 -6 0 -37 -20 -69 -45 -31 -25 -60 -45 -63 -45 -4 0 -39 19
-79 41 -68 39 -73 40 -86 23 -7 -10 -13 -23 -13 -30 0 -19 -29 -26 -135 -31
-75 -4 -128 0 -210 15 -61 11 -127 23 -147 27 -30 5 -42 13 -55 40 -17 33 -18
24 -15 -292 1 -180 4 -329 6 -330 2 -2 72 -5 156 -8 111 -3 173 0 222 10 89
19 82 21 104 -20 19 -36 72 -65 119 -65 29 0 33 -17 38 -173 3 -73 0 -113 -8
-124 -7 -9 -10 -24 -8 -32 3 -13 -4 -16 -41 -16 -24 0 -48 4 -53 8 -4 5 -1 8
7 7 8 -1 22 -2 30 -1 12 1 11 4 -3 12 -14 8 -28 3 -67 -26 l-50 -37 -11 26
c-15 31 -18 31 -94 1 l-60 -24 42 0 c23 -1 45 -6 48 -11 4 -6 10 -8 15 -5 6 4
20 -16 20 -30 0 -2 -29 -3 -65 -2 -55 2 -62 4 -48 14 9 7 14 15 11 18 -5 5
-104 24 -150 29 -10 1 -21 5 -24 9 -4 4 -14 7 -23 7 -24 0 5 -24 32 -25 47 -3
128 -18 132 -25 2 -4 -19 -3 -48 2 -29 5 -66 9 -83 9 -32 0 -91 38 -63 40 18
2 -59 18 -88 18 -21 1 -23 -4 -23 -45 0 -25 4 -43 9 -39 13 7 19 -16 27 -102
l7 -73 548 0 549 0 0 920 0 920 -3200 0 -3200 0 0 -920z m2097 -282 c-3 -8 -6
-5 -6 6 -1 11 2 17 5 13 3 -3 4 -12 1 -19z m3743 -25 c0 -7 -39 17 -46 28 -3
6 5 3 20 -6 14 -10 26 -19 26 -22z m-5492 -68 c-3 -3 -9 2 -12 12 -6 14 -5 15
5 6 7 -7 10 -15 7 -18z m4379 -82 c-3 -10 -5 -2 -5 17 0 19 2 27 5 18 2 -10 2
-26 0 -35z m-3730 5 c-3 -8 -6 -5 -6 6 -1 11 2 17 5 13 3 -3 4 -12 1 -19z
m-660 -10 c-3 -8 -6 -5 -6 6 -1 11 2 17 5 13 3 -3 4 -12 1 -19z m2270 -10 c-3
-7 -5 -2 -5 12 0 14 2 19 5 13 2 -7 2 -19 0 -25z m20 10 c-3 -8 -6 -5 -6 6 -1
11 2 17 5 13 3 -3 4 -12 1 -19z m3350 -10 c-3 -7 -5 -2 -5 12 0 14 2 19 5 13
2 -7 2 -19 0 -25z m-3920 -35 c-3 -10 -5 -2 -5 17 0 19 2 27 5 18 2 -10 2 -26
0 -35z m1346 -14 c-5 -5 -7 7 -4 29 5 34 6 35 9 8 2 -16 0 -32 -5 -37z m-2416
29 c-3 -8 -6 -5 -6 6 -1 11 2 17 5 13 3 -3 4 -12 1 -19z m4960 -20 c-3 -7 -5
-2 -5 12 0 14 2 19 5 13 2 -7 2 -19 0 -25z m-5600 0 c-3 -8 -6 -5 -6 6 -1 11
2 17 5 13 3 -3 4 -12 1 -19z m2253 2 c0 -11 -4 -20 -9 -20 -5 0 -7 9 -4 20 3
11 7 20 9 20 2 0 4 -9 4 -20z m30 0 c0 -5 -5 -10 -11 -10 -5 0 -7 5 -4 10 3 6
8 10 11 10 2 0 4 -4 4 -10z m-1653 -42 c-3 -7 -5 -2 -5 12 0 14 2 19 5 13 2
-7 2 -19 0 -25z m-100 -10 c-3 -8 -6 -5 -6 6 -1 11 2 17 5 13 3 -3 4 -12 1
-19z m1706 -29 c-6 -6 -7 3 -4 23 4 28 6 29 9 9 2 -13 0 -27 -5 -32z m3378 28
c-10 -9 -11 -8 -5 6 3 10 9 15 12 12 3 -3 0 -11 -7 -18z m-3986 3 c3 -5 1 -10
-4 -10 -6 0 -11 5 -11 10 0 6 2 10 4 10 3 0 8 -4 11 -10z m1971 -66 c-4 -9 -9
-15 -11 -12 -3 3 -3 13 1 22 4 9 9 15 11 12 3 -3 3 -13 -1 -22z m-2973 -41
c-15 -35 -31 -25 -19 12 7 24 13 30 18 20 5 -7 5 -22 1 -32z m1038 -1 c-6 -10
-7 -23 -3 -27 4 -5 2 -5 -5 -2 -6 4 -14 1 -16 -5 -3 -7 -6 -1 -6 15 -1 15 4
27 9 27 6 0 10 8 10 17 0 12 3 14 11 6 8 -8 8 -17 0 -31z m609 -2 c0 -5 -5
-10 -11 -10 -5 0 -7 5 -4 10 3 6 8 10 11 10 2 0 4 -4 4 -10z m3330 0 c0 -5 -4
-10 -10 -10 -5 0 -10 5 -10 10 0 6 5 10 10 10 6 0 10 -4 10 -10z m-3363 -6
c-3 -3 -12 -4 -19 -1 -8 3 -5 6 6 6 11 1 17 -2 13 -5z m2716 -1 c-12 -2 -24
-12 -26 -21 -3 -12 -5 -10 -6 6 -1 18 4 22 27 21 22 -1 23 -2 5 -6z m409 -17
c-2 -9 2 -15 9 -14 6 2 14 -3 17 -11 3 -10 0 -12 -12 -8 -9 4 -16 3 -16 -2 0
-16 13 -21 27 -10 7 6 13 9 13 6 0 -5 38 4 73 18 11 5 17 3 17 -6 0 -7 -3 -9
-7 -6 -3 4 -11 3 -17 -2 -6 -4 -24 -11 -41 -14 -16 -3 -37 -8 -46 -12 -17 -7
-44 39 -33 57 5 7 -2 9 -20 6 -32 -6 -34 -1 -3 12 29 11 43 7 39 -14z m105 5
c1 -12 -9 -21 -33 -29 -35 -10 -50 3 -16 15 9 4 21 12 25 20 11 19 23 16 24
-6z m-5410 -33 c-3 -8 -6 -5 -6 6 -1 11 2 17 5 13 3 -3 4 -12 1 -19z m5613 18
c0 -3 -4 -8 -10 -11 -5 -3 -10 -1 -10 4 0 6 5 11 10 11 6 0 10 -2 10 -4z
m-630 -31 c-7 -8 -17 -15 -22 -15 -6 0 -5 7 2 15 7 8 17 15 22 15 6 0 5 -7 -2
-15z m90 -9 c0 -6 -18 -12 -43 -12 -36 -2 -39 0 -19 9 12 5 22 13 22 18 0 4 9
5 20 2 11 -3 20 -10 20 -17z m-4539 -43 c-9 -15 -10 -12 -10 17 0 29 1 32 10
18 7 -12 7 -24 0 -35z m4609 37 c0 -6 -11 -8 -27 -4 -40 10 -41 14 -5 14 18 0
32 -5 32 -10z m290 6 c0 -3 -4 -8 -10 -11 -5 -3 -10 -1 -10 4 0 6 5 11 10 11
6 0 10 -2 10 -4z m187 -12 c-3 -3 -12 -4 -19 -1 -8 3 -5 6 6 6 11 1 17 -2 13
-5z m-2036 -77 c-13 -13 -15 11 -4 40 7 16 8 15 11 -6 2 -13 -1 -28 -7 -34z
m1346 -29 c-3 -8 -6 -5 -6 6 -1 11 2 17 5 13 3 -3 4 -12 1 -19z m-1337 -18 c0
-11 -4 -20 -10 -20 -5 0 -10 9 -10 20 0 11 5 20 10 20 6 0 10 -9 10 -20z
m-3630 0 c0 -5 -7 -10 -16 -10 -8 0 -12 5 -9 10 3 6 10 10 16 10 5 0 9 -4 9
-10z"/>
<path d="M2573 6148 c-24 -12 -42 -22 -40 -24 1 -1 22 1 47 5 32 4 46 11 48
24 4 22 -4 21 -55 -5z"/>
<path d="M380 6032 l-46 -17 22 -115 c12 -63 23 -108 23 -100 5 56 31 172 45
198 29 56 25 59 -44 34z"/>
<path d="M4863 5942 c-8 -5 -4 -14 13 -29 24 -22 31 -13 18 21 -7 18 -13 19
-31 8z"/>
<path d="M5750 5921 c0 -10 30 -24 37 -17 3 2 -5 9 -16 16 -12 6 -21 7 -21 1z"/>
<path d="M3570 5789 c0 -5 5 -7 10 -4 6 3 10 8 10 11 0 2 -4 4 -10 4 -5 0 -10
-5 -10 -11z"/>
<path d="M4840 5618 c-6 -18 -14 -71 -17 -117 -5 -69 -4 -83 8 -79 10 4 13 19
12 52 l-3 46 37 -15 c44 -18 50 -26 64 -83 7 -24 20 -47 31 -53 18 -10 19 -8
13 12 -4 13 -32 73 -61 133 -30 60 -54 115 -54 122 0 26 -18 14 -30 -18z"/>
<path d="M2567 5593 c-7 -16 -24 -45 -36 -65 l-23 -38 31 0 c30 0 31 -1 31
-45 0 -26 5 -45 11 -45 6 0 9 9 6 20 -3 11 -1 18 3 15 11 -7 16 61 12 133 -4
58 -14 65 -35 25z"/>
<path d="M2452 5419 c-24 -37 -28 -49 -16 -49 8 0 12 5 9 10 -3 6 -2 10 4 10
12 0 44 57 39 70 -2 5 -18 -13 -36 -41z"/>
<path d="M1347 5365 c-18 -38 -22 -52 -12 -49 8 4 12 10 9 15 -3 5 -2 9 3 9
13 0 44 63 35 72 -4 4 -20 -17 -35 -47z"/>
<path d="M4844 5238 c0 -32 4 -58 8 -58 3 0 21 -12 39 -27 25 -21 31 -24 26
-10 -4 10 -7 23 -7 28 0 6 -5 7 -12 3 -7 -5 -9 -2 -5 9 3 8 0 18 -8 20 -7 3
-20 25 -28 49 l-15 43 2 -57z"/>
<path d="M1551 5218 c-17 -42 -21 -67 -17 -93 10 -50 22 -36 36 43 18 98 10
120 -19 50z m3 -64 c3 -8 2 -12 -4 -9 -6 3 -10 10 -10 16 0 14 7 11 14 -7z"/>
<path d="M2512 5228 c-6 -26 -14 -34 -35 -36 -15 -2 -27 -9 -27 -15 0 -7 -3
-23 -7 -37 -6 -22 -5 -24 10 -11 9 7 14 18 10 24 -4 6 0 8 9 4 22 -8 45 20 53
66 9 45 -1 49 -13 5z m-7 -48 c-3 -5 -16 -10 -28 -9 -20 1 -20 2 3 9 14 4 26
8 28 9 2 1 0 -3 -3 -9z"/>
<path d="M520 5232 c0 -11 -9 -27 -21 -38 -18 -16 -20 -26 -14 -68 3 -27 11
-58 17 -69 7 -13 7 -17 0 -13 -11 7 -25 -10 -29 -34 -1 -10 3 -9 13 4 14 20
14 20 15 0 0 -16 2 -15 11 6 11 28 24 230 14 230 -3 0 -6 -8 -6 -18z m-7 -132
c-3 -11 -7 -20 -9 -20 -2 0 -4 9 -4 20 0 11 4 20 9 20 5 0 7 -9 4 -20z"/>
<path d="M3620 5221 c0 -5 -13 -23 -29 -40 -16 -17 -24 -31 -18 -31 9 0 9 -2
1 -8 -6 -4 -17 -40 -24 -79 -7 -40 -16 -73 -20 -73 -4 0 -7 -7 -7 -15 0 -28
15 -15 28 23 7 20 12 40 11 45 -1 4 2 7 7 7 13 0 48 89 54 138 3 23 3 42 1 42
-2 0 -4 -4 -4 -9z m-42 -141 c-7 -11 -15 -15 -17 -9 -2 6 3 15 10 20 20 12 21
11 7 -11z"/>
<path d="M1377 5136 c-4 -10 -1 -13 9 -9 15 6 19 23 5 23 -5 0 -11 -7 -14 -14z"/>
<path d="M5447 5136 c-6 -14 -17 -17 -66 -15 -56 2 -60 1 -91 -34 -19 -22 -30
-44 -27 -54 4 -17 5 -17 6 0 0 9 9 17 19 17 14 0 15 -2 2 -10 -8 -5 -10 -10
-4 -10 15 0 34 22 34 41 0 13 13 18 59 23 59 7 87 24 79 48 -3 8 -7 6 -11 -6z
m-109 -30 c-2 0 -16 -12 -32 -26 l-30 -25 25 31 c13 17 28 29 32 27 5 -3 7 -6
5 -7z"/>
<path d="M1535 5072 c-13 -9 -17 -32 -6 -32 9 0 24 30 18 36 -1 2 -7 0 -12 -4z"/>
<path d="M2380 5029 c-6 -11 -10 -25 -7 -32 2 -6 9 3 15 21 12 36 8 42 -8 11z"/>
<path d="M4952 5019 c6 -16 12 -28 14 -26 5 5 -13 57 -20 57 -3 0 0 -14 6 -31z"/>
<path d="M1280 4985 c-10 -12 -10 -15 2 -15 8 0 15 7 15 15 0 8 -1 15 -2 15
-2 0 -8 -7 -15 -15z"/>
<path d="M1641 4894 c0 -11 3 -14 6 -6 3 7 2 16 -1 19 -3 4 -6 -2 -5 -13z"/>
<path d="M2419 4868 c-7 -13 -19 -33 -27 -45 -9 -15 -10 -23 -3 -23 6 0 11 7
11 15 0 9 9 15 25 15 17 0 25 5 24 18 0 10 -3 12 -6 5 -8 -21 -22 -15 -16 7 3
11 9 17 14 14 5 -3 9 0 9 5 0 19 -19 12 -31 -11z"/>
<path d="M4877 4856 c-9 -24 -9 -28 3 -21 6 4 10 -21 10 -67 1 -70 2 -75 39
-115 l37 -41 -4 31 c-3 18 -7 26 -9 19 -7 -19 -23 -4 -23 21 0 18 2 19 10 7 8
-13 10 -12 10 3 0 19 -15 23 -25 7 -16 -26 -25 -5 -22 54 4 68 -13 136 -26
102z"/>
<path d="M5881 4856 c-20 -11 -21 -14 -7 -19 10 -4 14 -11 11 -17 -4 -6 1 -7
10 -3 13 5 14 7 3 14 -10 7 -11 9 0 9 7 0 11 4 8 9 -4 5 0 12 6 14 7 3 9 6 3
6 -5 0 -21 -6 -34 -13z"/>
<path d="M591 4844 c0 -11 3 -14 6 -6 3 7 2 16 -1 19 -3 4 -6 -2 -5 -13z"/>
<path d="M3967 4830 c-3 -11 -1 -20 4 -20 5 0 9 9 9 20 0 11 -2 20 -4 20 -2 0
-6 -9 -9 -20z"/>
<path d="M1330 4833 c0 -5 5 -15 10 -23 8 -12 10 -11 10 8 0 12 -4 22 -10 22
-5 0 -10 -3 -10 -7z"/>
<path d="M3610 4819 c0 -5 5 -7 10 -4 6 3 10 8 10 11 0 2 -4 4 -10 4 -5 0 -10
-5 -10 -11z"/>
<path d="M1302 4768 c-13 -22 -21 -42 -19 -45 3 -2 -4 -14 -14 -24 -14 -14
-18 -27 -13 -41 4 -15 3 -18 -6 -13 -9 5 -11 4 -6 -3 10 -16 14 -15 27 9 8 15
8 19 0 15 -14 -9 -14 4 -1 24 9 13 10 13 10 0 1 -8 5 -5 11 8 5 13 7 28 3 33
-3 5 -1 9 3 9 8 0 36 61 30 66 -1 2 -13 -15 -25 -38z"/>
<path d="M1612 4780 c-15 -24 -16 -41 -1 -20 9 12 10 11 6 -7 -3 -13 -1 -23 4
-23 4 0 8 16 7 35 -1 19 -2 35 -2 35 -1 0 -7 -9 -14 -20z"/>
<path d="M3957 4775 c-13 -18 -17 -38 -14 -68 l4 -42 1 48 c2 34 6 47 17 47 8
0 15 9 15 20 0 25 -1 25 -23 -5z"/>
<path d="M2360 4768 c-10 -21 -10 -22 4 -5 14 18 14 18 19 0 4 -14 5 -14 6 5
0 12 -3 22 -9 22 -5 0 -14 -10 -20 -22z"/>
<path d="M4915 4741 c-4 -13 -4 -25 -1 -28 3 -4 6 2 6 13 0 16 2 17 10 4 5 -8
10 -10 10 -5 0 6 -4 16 -9 24 -7 11 -10 9 -16 -8z"/>
<path d="M5607 4747 c-3 -9 8 -13 36 -13 39 -1 40 -1 16 12 -31 17 -46 17 -52
1z"/>
<path d="M548 4718 c-34 -36 -37 -50 -4 -19 23 21 25 22 29 4 3 -10 5 -4 6 15
0 17 0 31 -1 31 -2 -1 -15 -15 -30 -31z"/>
<path d="M1439 4738 c0 -7 -4 -34 -8 -61 -6 -34 -4 -52 5 -65 8 -9 14 -12 14
-5 0 6 -4 14 -8 17 -4 2 -5 24 -3 48 l5 43 7 -45 c6 -44 6 -43 7 18 1 36 -2
62 -8 62 -5 0 -10 -6 -11 -12z"/>
<path d="M1570 4739 c0 -5 5 -7 10 -4 6 3 10 8 10 11 0 2 -4 4 -10 4 -5 0 -10
-5 -10 -11z"/>
<path d="M2330 4720 c-6 -11 -8 -25 -5 -30 4 -6 -1 -13 -9 -16 -9 -3 -16 -10
-16 -16 0 -5 18 6 40 23 22 18 40 39 39 48 0 11 -3 9 -9 -5 -4 -12 -15 -24
-24 -27 -19 -7 -20 -3 -6 24 6 10 8 19 6 19 -3 0 -10 -9 -16 -20z"/>
<path d="M1587 4723 c-4 -3 -7 -18 -6 -32 1 -26 1 -25 10 3 9 31 7 41 -4 29z"/>
<path d="M5272 4700 c0 -14 2 -19 5 -12 2 6 2 18 0 25 -3 6 -5 1 -5 -13z"/>
<path d="M3557 4697 c-3 -9 -18 -22 -32 -29 -18 -8 -25 -18 -24 -37 2 -24 2
-24 6 -3 4 22 38 48 46 34 2 -4 2 -2 1 5 -2 6 2 13 8 15 6 2 9 10 6 18 -3 11
-6 10 -11 -3z"/>
<path d="M542 4678 c-7 -7 -11 -21 -11 -32 1 -21 1 -21 6 -1 3 11 10 26 15 33
13 15 6 16 -10 0z"/>
<path d="M3392 4655 c0 -16 2 -22 5 -12 2 9 2 23 0 30 -3 6 -5 -1 -5 -18z"/>
<path d="M5274 4575 c0 -55 1 -76 3 -47 2 29 2 74 0 100 -2 26 -3 2 -3 -53z"/>
<path d="M4750 4659 c0 -4 7 -22 15 -40 8 -19 14 -27 14 -19 0 14 -28 72 -29
59z"/>
<path d="M2528 4628 c2 -10 6 -18 7 -18 1 0 5 8 7 18 3 11 0 19 -7 19 -7 0
-10 -8 -7 -19z"/>
<path d="M3521 4623 c0 -12 -5 -25 -11 -28 -5 -3 -10 -14 -10 -23 0 -11 6 -6
15 12 9 17 14 37 12 45 -3 10 -5 8 -6 -6z"/>
<path d="M2472 4594 c-12 -19 -19 -34 -15 -34 8 0 46 61 41 66 -2 1 -13 -13
-26 -32z"/>
<path d="M3931 4548 c1 -85 6 -80 11 10 3 34 1 62 -4 62 -4 0 -8 -33 -7 -72z"/>
<path d="M1216 4594 c-5 -14 -4 -15 9 -4 17 14 19 20 6 20 -5 0 -12 -7 -15
-16z"/>
<path d="M3382 4590 c0 -14 2 -19 5 -12 2 6 2 18 0 25 -3 6 -5 1 -5 -13z"/>
<path d="M2500 4570 c-13 -8 -12 -10 3 -10 9 0 17 5 17 10 0 12 -1 12 -20 0z"/>
<path d="M1372 4538 c-9 -24 -9 -35 0 -43 8 -7 9 -6 4 2 -4 7 -2 22 4 33 6 12
10 26 8 31 -2 5 -9 -5 -16 -23z"/>
<path d="M410 4555 c0 -5 5 -17 10 -25 5 -8 10 -10 10 -5 0 6 -5 17 -10 25 -5
8 -10 11 -10 5z"/>
<path d="M1461 4545 c0 -5 6 -19 14 -29 8 -11 15 -15 15 -10 0 6 -7 19 -15 30
-8 10 -14 15 -14 9z"/>
<path d="M1714 4535 c-3 -8 -4 -20 -1 -27 3 -7 6 -3 6 9 1 12 7 24 14 26 9 4
9 6 -1 6 -7 1 -15 -6 -18 -14z"/>
<path d="M3366 4535 c-9 -26 -7 -32 5 -12 6 10 9 21 6 23 -2 3 -7 -2 -11 -11z"/>
<path d="M2430 4520 c0 -11 2 -20 4 -20 2 0 6 9 9 20 3 11 1 20 -4 20 -5 0 -9
-9 -9 -20z"/>
<path d="M1732 4510 c0 -14 2 -19 5 -12 2 6 2 18 0 25 -3 6 -5 1 -5 -13z"/>
<path d="M660 4473 c0 -43 6 -41 13 5 3 17 1 32 -4 32 -5 0 -9 -16 -9 -37z"/>
<path d="M1416 4493 c-6 -14 -5 -15 5 -6 7 7 10 15 7 18 -3 3 -9 -2 -12 -12z"/>
<path d="M1601 4494 c0 -11 3 -14 6 -6 3 7 2 16 -1 19 -3 4 -6 -2 -5 -13z"/>
<path d="M2451 4505 c1 -19 18 -51 18 -35 0 8 -4 22 -9 30 -5 8 -9 11 -9 5z"/>
<path d="M4783 4445 c0 -38 2 -53 4 -32 2 20 2 52 0 70 -2 17 -4 1 -4 -38z"/>
<path d="M1491 4474 c0 -11 3 -14 6 -6 3 7 2 16 -1 19 -3 4 -6 -2 -5 -13z"/>
<path d="M1710 4468 c0 -15 -4 -29 -10 -33 -5 -3 -6 -13 -3 -22 5 -12 10 -6
20 22 9 26 10 42 3 49 -7 7 -10 1 -10 -16z"/>
<path d="M2424 4476 c-3 -8 -4 -23 -2 -33 3 -11 6 -6 9 15 6 34 2 42 -7 18z"/>
<path d="M3362 4465 c0 -16 2 -22 5 -12 2 9 2 23 0 30 -3 6 -5 -1 -5 -18z"/>
<path d="M1615 4440 c5 -19 8 -40 8 -47 0 -7 4 -10 8 -7 4 2 3 21 -3 42 -13
48 -23 57 -13 12z"/>
<path d="M550 4446 c0 -8 4 -17 9 -20 5 -4 7 3 4 14 -6 23 -13 26 -13 6z"/>
<path d="M3615 4449 c-23 -65 -35 -103 -32 -106 2 -2 14 22 25 54 12 31 19 59
17 61 -3 3 -7 -1 -10 -9z"/>
<path d="M1341 4434 c0 -11 3 -14 6 -6 3 7 2 16 -1 19 -3 4 -6 -2 -5 -13z"/>
<path d="M416 4425 c-9 -26 -7 -32 5 -12 6 10 9 21 6 23 -2 3 -7 -2 -11 -11z"/>
<path d="M1457 4420 c3 -11 9 -17 15 -14 5 3 4 12 -3 20 -16 19 -18 18 -12 -6z"/>
<path d="M651 4414 c0 -11 3 -14 6 -6 3 7 2 16 -1 19 -3 4 -6 -2 -5 -13z"/>
<path d="M3470 4421 c0 -5 9 -7 20 -4 11 3 20 7 20 9 0 2 -9 4 -20 4 -11 0
-20 -4 -20 -9z"/>
<path d="M4731 4414 c0 -11 3 -14 6 -6 3 7 2 16 -1 19 -3 4 -6 -2 -5 -13z"/>
<path d="M4761 4414 c0 -11 3 -14 6 -6 3 7 2 16 -1 19 -3 4 -6 -2 -5 -13z"/>
<path d="M1658 4413 c7 -3 16 -2 19 1 4 3 -2 6 -13 5 -11 0 -14 -3 -6 -6z"/>
<path d="M2412 4390 c0 -14 2 -19 5 -12 2 6 2 18 0 25 -3 6 -5 1 -5 -13z"/>
<path d="M1332 4380 c0 -14 2 -19 5 -12 2 6 2 18 0 25 -3 6 -5 1 -5 -13z"/>
<path d="M600 4383 c8 -3 18 -11 22 -17 5 -7 8 -6 9 4 0 10 3 9 10 -5 l9 -20
-3 20 c-1 14 -11 21 -32 22 -17 1 -23 0 -15 -4z"/>
<path d="M3366 4363 c-6 -14 -5 -15 5 -6 7 7 10 15 7 18 -3 3 -9 -2 -12 -12z"/>
<path d="M571 4354 c0 -11 3 -14 6 -6 3 7 2 16 -1 19 -3 4 -6 -2 -5 -13z"/>
<path d="M1491 4354 c0 -11 3 -14 6 -6 3 7 2 16 -1 19 -3 4 -6 -2 -5 -13z"/>
<path d="M3943 4310 c0 -30 2 -43 4 -27 2 15 2 39 0 55 -2 15 -4 2 -4 -28z"/>
<path d="M5273 4320 c0 -25 2 -35 4 -22 2 12 2 32 0 45 -2 12 -4 2 -4 -23z"/>
<path d="M3540 4340 c-9 -6 -10 -10 -3 -10 6 0 15 5 18 10 8 12 4 12 -15 0z"/>
<path d="M3490 4336 c0 -2 7 -7 16 -10 8 -3 12 -2 9 4 -6 10 -25 14 -25 6z"/>
<path d="M1502 4310 c0 -14 2 -19 5 -12 2 6 2 18 0 25 -3 6 -5 1 -5 -13z"/>
<path d="M4783 4290 c0 -25 2 -35 4 -22 2 12 2 32 0 45 -2 12 -4 2 -4 -23z"/>
<path d="M1670 4309 c0 -5 -6 -7 -12 -3 -8 5 -8 1 2 -12 8 -10 15 -20 16 -22
1 -2 2 9 2 23 0 14 -2 25 -4 25 -2 0 -4 -5 -4 -11z"/>
<path d="M3482 4280 c0 -14 2 -19 5 -12 2 6 2 18 0 25 -3 6 -5 1 -5 -13z"/>
<path d="M600 4276 c0 -2 7 -9 15 -16 9 -7 15 -8 15 -2 0 5 -7 12 -15 16 -8 3
-15 4 -15 2z"/>
<path d="M2392 4230 c0 -14 2 -19 5 -12 2 6 2 18 0 25 -3 6 -5 1 -5 -13z"/>
<path d="M4782 4210 c0 -19 2 -27 5 -17 2 9 2 25 0 35 -3 9 -5 1 -5 -18z"/>
<path d="M1302 4180 c0 -14 2 -19 5 -12 2 6 2 18 0 25 -3 6 -5 1 -5 -13z"/>
<path d="M2381 4134 c0 -11 3 -14 6 -6 3 7 2 16 -1 19 -3 4 -6 -2 -5 -13z"/>
<path d="M3351 4124 c0 -11 3 -14 6 -6 3 7 2 16 -1 19 -3 4 -6 -2 -5 -13z"/>
<path d="M5251 4124 c0 -11 3 -14 6 -6 3 7 2 16 -1 19 -3 4 -6 -2 -5 -13z"/>
<path d="M1551 4114 c0 -11 3 -14 6 -6 3 7 2 16 -1 19 -3 4 -6 -2 -5 -13z"/>
<path d="M700 4071 c0 -6 4 -13 10 -16 6 -3 7 1 4 9 -7 18 -14 21 -14 7z"/>
<path d="M4772 4050 c0 -19 2 -27 5 -17 2 9 2 25 0 35 -3 9 -5 1 -5 -18z"/>
<path d="M4761 3904 c0 -11 3 -14 6 -6 3 7 2 16 -1 19 -3 4 -6 -2 -5 -13z"/>
<path d="M1081 3854 c0 -11 3 -14 6 -6 3 7 2 16 -1 19 -3 4 -6 -2 -5 -13z"/>
<path d="M5169 3733 l-24 -28 28 24 c25 23 32 31 24 31 -2 0 -14 -12 -28 -27z"/>
<path d="M4028 3663 c6 -2 18 -2 25 0 6 3 1 5 -13 5 -14 0 -19 -2 -12 -5z"/>
<path d="M4070 3636 c-80 -18 -116 -40 -196 -120 -60 -60 -74 -81 -90 -131
-19 -65 -34 -91 -34 -59 0 41 67 159 121 213 61 61 49 58 -27 -6 -71 -60 -130
-173 -149 -287 l-6 -38 -23 21 c-27 26 -36 26 -37 4 0 -17 -1 -17 -8 0 -11 30
-26 21 -32 -20 l-6 -38 -2 41 -1 41 -74 6 c-64 5 -87 1 -163 -23 -102 -33
-199 -103 -233 -170 -20 -38 -38 -56 -26 -25 7 20 5 19 -51 -15 -27 -17 -66
-54 -88 -82 -55 -74 -118 -213 -122 -273 -3 -36 -2 -46 6 -35 5 8 13 11 17 8
4 -4 -16 -33 -45 -63 -28 -31 -51 -65 -51 -75 0 -10 -6 -25 -13 -32 -8 -8 -14
-50 -16 -113 -5 -154 -5 -155 -13 -155 -5 0 -8 5 -8 12 0 24 -19 -7 -22 -37
-2 -18 -9 -31 -18 -31 -8 -1 -21 -2 -29 -3 -11 -1 -11 -4 0 -18 12 -16 11 -16
-8 0 -19 17 -25 17 -49 5 -15 -7 -29 -20 -32 -28 -3 -13 -2 -13 7 0 9 13 12
13 28 -2 9 -10 13 -21 9 -25 -5 -5 -11 -3 -13 4 -3 10 -9 10 -24 0 -25 -16
-24 -26 4 -37 20 -8 20 -9 2 -9 -17 -1 -16 -4 9 -20 32 -21 56 -17 127 24 42
23 67 51 104 117 27 46 31 47 14 1 -33 -90 -143 -173 -228 -173 -24 0 -40 -4
-36 -9 3 -5 1 -12 -5 -16 -5 -3 -10 0 -10 8 0 7 -9 23 -20 34 -10 12 -22 33
-26 47 -3 14 -11 26 -16 26 -14 0 -2 -71 13 -80 8 -6 7 -9 -2 -12 -12 -4 -12
-7 0 -21 7 -10 9 -17 5 -17 -5 0 -15 -14 -23 -32 -13 -29 -13 -33 9 -50 12
-10 28 -18 36 -18 8 0 14 -5 14 -11 0 -6 -8 -9 -18 -7 -19 5 -47 -17 -33 -27
5 -3 11 -1 13 5 2 6 19 0 38 -13 54 -37 130 -53 179 -39 40 12 134 85 155 120
37 62 52 82 59 82 13 0 -68 -112 -110 -152 -63 -61 -143 -84 -206 -59 -22 9
-33 8 -52 -5 -28 -18 -33 -29 -10 -20 8 3 15 2 15 -3 0 -5 -25 -16 -55 -25
-61 -20 -94 -42 -126 -88 l-22 -31 29 19 c29 18 29 18 13 -1 -9 -11 -24 -34
-32 -51 -15 -29 -15 -32 6 -52 12 -12 16 -22 10 -22 -6 0 -9 -8 -6 -18 2 -10
13 -18 23 -18 16 0 17 3 6 16 -18 20 -11 84 17 140 17 35 29 46 53 51 l32 6
-33 -33 c-60 -59 -70 -149 -22 -187 l22 -18 -26 6 c-34 8 -84 -31 -74 -58 10
-24 22 -21 41 8 9 14 19 23 22 20 3 -3 -2 -13 -12 -24 -9 -10 -19 -28 -21 -41
-5 -25 -35 -51 -50 -43 -5 3 -5 0 2 -7 10 -10 15 -11 27 -1 9 7 16 8 20 2 4
-5 2 -12 -4 -16 -21 -13 -2 -115 22 -115 4 0 8 -8 8 -17 0 -32 57 -119 94
-144 20 -13 36 -30 36 -36 0 -7 6 -13 14 -13 8 0 17 -7 20 -16 3 -8 10 -12 16
-9 6 4 10 -6 10 -23 0 -39 37 -72 81 -72 19 0 40 -5 45 -10 12 -12 57 1 69 19
13 22 25 10 25 -23 0 -24 9 -43 29 -65 l30 -32 -49 -48 c-49 -49 -71 -104 -54
-132 9 -16 22 13 23 52 1 14 10 34 20 43 19 17 19 16 18 -63 -2 -71 -4 -79
-16 -64 -12 16 -13 15 -7 -9 8 -36 -1 -36 -16 0 -9 22 -12 24 -15 9 -7 -29 25
-56 86 -74 44 -13 52 -17 36 -23 -16 -6 -11 -9 25 -18 37 -8 40 -10 15 -11
-17 0 -52 12 -80 29 -27 16 -59 30 -69 30 -18 0 -18 -1 3 -24 12 -12 41 -29
64 -36 27 -9 36 -15 24 -18 -9 -2 -40 8 -69 21 -29 14 -58 23 -65 20 -15 -6
-18 -43 -3 -43 7 0 7 -7 -1 -21 -10 -19 -7 -26 22 -55 19 -18 41 -34 49 -36 8
-2 18 -7 21 -12 6 -7 93 -9 199 -3 l35 2 1 -48 c1 -30 -2 -43 -7 -35 -5 7 -9
23 -9 34 0 20 -3 21 -39 12 -37 -9 -38 -11 -31 -43 11 -48 58 -105 92 -112 16
-3 31 -10 34 -14 3 -5 568 -9 1282 -9 l1278 0 18 30 c12 22 17 47 15 87 -3 66
9 76 46 39 30 -30 31 -56 5 -114 l-19 -42 69 0 c82 0 90 8 98 105 7 95 -28
148 -109 164 -38 8 -40 9 -14 11 17 1 33 2 37 1 9 -1 40 100 33 107 -2 2 7 19
20 37 32 40 31 47 -1 35 -48 -19 -49 -9 -1 16 46 24 62 54 37 69 -5 3 -10 11
-10 16 0 6 5 7 10 4 6 -3 10 -1 10 5 0 5 -24 21 -53 34 -29 12 -60 34 -69 48
-16 25 -16 27 4 44 30 28 39 60 26 91 -6 16 -10 37 -9 48 2 18 0 17 -18 -5
-17 -21 -18 -27 -6 -36 32 -24 -19 -114 -65 -114 -9 0 -5 5 9 13 30 15 38 61
9 51 -23 -7 -23 5 0 22 15 12 15 13 0 14 -12 0 -15 6 -10 22 3 14 2 19 -6 14
-23 -14 -12 9 16 32 23 19 23 21 4 12 -32 -16 -97 -9 -97 10 0 11 13 15 54 16
44 1 59 6 73 24 10 12 18 29 18 38 0 14 -2 14 -17 0 -24 -21 -55 -29 -71 -20
-8 6 -4 14 18 30 33 25 40 65 15 79 -16 10 -9 56 8 50 6 -2 19 4 29 12 10 9
27 24 37 33 28 24 39 105 18 126 -15 14 -16 12 -11 -29 6 -46 -10 -104 -25
-95 -5 4 -5 18 2 35 14 39 -21 112 -69 142 -19 12 -33 24 -30 27 3 3 25 -8 48
-24 55 -37 111 -41 76 -6 -8 8 -8 15 2 27 10 12 10 15 -4 15 -22 0 -20 17 4
25 40 13 79 112 50 130 -6 4 -10 -6 -10 -24 0 -36 -40 -71 -80 -71 -22 0 -29
6 -33 28 -3 16 -17 34 -31 42 -32 17 -34 34 -3 24 44 -14 97 -14 97 1 0 7 -6
16 -12 18 -7 3 -3 6 9 6 31 1 37 17 10 26 -16 5 -18 8 -7 12 8 3 19 10 25 15
5 5 18 14 28 21 9 7 19 23 22 36 2 14 9 27 14 31 13 7 -105 44 -138 43 -39 -1
-54 20 -30 41 11 9 17 21 14 26 -3 6 1 7 9 4 23 -9 103 42 121 76 8 16 15 39
14 52 -1 17 -4 13 -13 -14 -12 -39 -51 -87 -62 -76 -3 4 2 18 11 32 9 14 15
31 12 38 -2 7 -11 -3 -20 -23 -8 -20 -20 -40 -26 -43 -12 -8 -15 7 -3 18 4 4
8 31 8 59 l2 52 -35 -32 c-36 -35 -48 -39 -58 -23 -7 11 4 54 12 47 7 -8 43
26 43 40 0 18 -7 16 -32 -9 -16 -16 -23 -18 -26 -9 -5 16 13 29 51 38 15 3 27
12 27 20 0 8 4 12 9 8 5 -3 12 -1 16 5 7 11 -38 14 -49 3 -17 -17 -36 -10 -36
13 0 13 6 24 13 24 9 0 9 2 0 8 -6 4 -11 18 -10 32 0 14 -3 39 -8 55 -6 24 -5
28 5 18 7 -7 14 -20 15 -30 1 -10 7 -31 14 -46 6 -16 11 -33 11 -38 0 -5 9 -9
20 -9 17 0 20 6 19 43 0 29 -3 36 -8 23 -6 -15 -12 -7 -34 41 -15 33 -27 67
-27 76 0 8 -18 31 -40 51 -36 33 -40 41 -17 37 13 -2 8 16 -9 30 -8 7 -26 33
-39 58 -12 26 -32 57 -44 71 -19 23 -19 20 4 -35 l25 -60 -26 30 c-14 17 -39
53 -55 80 -16 28 -37 60 -47 73 -17 22 -17 22 -17 -41 0 -45 -6 -75 -20 -101
l-20 -37 32 -60 c18 -32 30 -59 26 -59 -11 0 -53 55 -53 70 -1 13 -2 13 -13
-1 -10 -13 -12 -9 -12 25 0 31 -9 56 -36 96 -70 105 -138 263 -120 275 15 9
37 -32 60 -110 21 -70 63 -160 81 -175 4 -3 12 -14 18 -25 9 -17 10 -13 6 20
-10 76 -25 127 -55 186 -29 58 -30 76 -2 42 13 -17 14 -16 9 5 -4 23 -4 23 14
7 11 -10 17 -22 14 -27 -3 -5 1 -17 9 -26 8 -9 22 -33 30 -52 l16 -35 -6 35
c-3 19 -12 42 -19 51 -8 9 -11 19 -7 24 5 4 2 5 -6 0 -10 -6 -12 -4 -7 4 5 7
15 10 23 7 17 -7 11 4 -32 59 -17 22 -44 61 -59 88 -26 45 -45 64 -32 32 9
-25 0 -17 -27 24 -14 21 -47 65 -72 97 l-46 59 45 -50 c26 -27 46 -46 46 -42
0 24 -83 114 -180 194 -20 16 -114 81 -220 151 -47 30 -132 87 -189 125 -98
66 -106 69 -135 59 -37 -15 -44 -10 -11 8 32 17 32 36 1 44 -40 10 -178 8
-235 -3 -29 -6 -55 -11 -57 -11 -2 0 -4 -4 -4 -10 0 -5 8 -10 17 -10 9 0 13
-3 9 -7 -3 -4 -28 -6 -55 -4 -58 3 -95 -14 -157 -71 -24 -22 -44 -36 -44 -30
0 6 18 26 40 43 22 18 40 38 40 46 0 14 -16 18 -22 6 -1 -5 -28 -21 -58 -37
-75 -40 -101 -61 -127 -104 -46 -75 -20 -236 42 -264 21 -9 28 -9 35 1 4 8 12
11 18 7 6 -3 14 -1 17 5 4 5 13 8 20 5 9 -3 11 2 8 17 -3 13 -1 18 4 12 9 -13
122 -14 141 -2 6 5 31 6 55 3 23 -3 60 -8 82 -10 66 -8 107 -24 141 -57 20
-19 34 -27 39 -20 3 6 10 56 14 111 12 157 23 130 14 -35 -13 -236 -9 -299 21
-388 36 -108 89 -182 225 -318 88 -87 122 -127 135 -163 10 -26 26 -55 35 -64
27 -28 47 -57 34 -48 -7 4 -13 5 -13 3 0 -8 50 -92 70 -117 l20 -25 0 35 c0
20 -7 62 -15 95 -32 123 -78 192 -119 179 -18 -6 -19 -5 -7 9 13 17 25 14 63
-16 38 -30 98 -201 98 -280 0 -21 4 -46 10 -56 10 -20 123 -95 158 -106 13 -4
21 -9 19 -11 -8 -9 -78 25 -129 62 -46 32 -49 33 -43 12 15 -46 59 -111 89
-129 17 -10 25 -19 17 -19 -29 0 -98 86 -118 147 -11 33 -37 81 -57 107 -20
26 -48 69 -63 94 -37 64 -114 157 -183 220 -61 55 -77 64 -61 34 7 -13 6 -23
-2 -31 -9 -9 -8 -16 1 -32 8 -12 9 -18 3 -14 -18 11 -12 -17 7 -32 9 -8 12
-12 6 -9 -7 3 -14 -2 -17 -13 -3 -12 -14 -18 -37 -19 -38 -1 -50 -10 -30 -22
21 -14 -6 -13 -31 0 -22 12 -25 7 -5 -12 11 -12 8 -14 -19 -14 -29 0 -31 2
-17 13 15 12 13 12 -13 7 -16 -4 -35 -13 -41 -20 -16 -20 -35 -18 -27 3 10 25
-17 6 -27 -21 l-9 -21 -6 22 c-7 20 -22 25 -105 34 -8 1 -18 6 -21 11 -3 5 -6
-5 -7 -22 0 -17 4 -28 9 -25 5 4 9 -3 9 -14 0 -12 9 -30 20 -41 11 -11 20 -25
20 -31 0 -12 8 -10 80 16 110 41 305 80 370 73 22 -2 36 -9 38 -19 3 -14 -10
-17 -87 -18 -108 -2 -283 -44 -346 -85 -27 -17 -70 -13 -93 8 -16 14 -24 15
-46 5 -14 -7 -26 -18 -26 -25 0 -7 -6 -15 -12 -18 -10 -5 -10 -7 0 -12 15 -7
16 -30 2 -39 -15 -9 -50 4 -50 20 0 7 5 15 12 17 7 3 6 7 -5 11 -12 4 -17 1
-17 -11 0 -13 -2 -14 -8 -4 -5 7 -16 10 -25 6 -23 -8 -22 -25 1 -18 9 3 5 -2
-9 -10 -21 -12 -27 -25 -31 -63 -3 -26 -12 -64 -20 -83 -9 -19 -23 -56 -32
-82 -18 -50 -70 -122 -89 -123 -7 -1 -25 -7 -42 -14 -42 -19 -160 -31 -376
-38 -154 -5 -195 -3 -241 11 -44 13 -58 21 -66 43 -45 117 -58 295 -24 325 25
23 78 43 163 62 40 10 98 26 129 36 61 20 214 40 312 40 35 0 94 -9 132 -20
39 -11 81 -17 95 -13 31 7 61 31 61 49 0 7 10 23 23 34 12 12 18 21 12 20 -22
-5 -23 1 -5 37 21 44 13 77 -19 79 -26 2 -43 -49 -28 -84 13 -28 3 -39 -20
-21 -11 9 -14 10 -9 2 5 -9 1 -13 -13 -13 -11 0 -23 -4 -26 -10 -4 -6 -16 -4
-31 6 -23 16 -24 16 -18 -2 5 -17 4 -17 -8 -3 -9 12 -29 16 -75 15 -33 -1 -59
2 -57 5 2 4 -5 14 -15 23 -17 15 -19 15 -25 1 -3 -9 -2 -13 3 -10 5 3 12 1 15
-4 10 -16 -10 -22 -76 -23 -110 0 -139 2 -134 11 8 13 -78 10 -86 -3 -5 -6 -8
-2 -8 11 0 12 8 26 17 32 10 5 15 13 11 17 -7 7 -65 -53 -131 -135 -18 -21
-49 -47 -71 -57 -37 -18 -39 -18 -53 1 -12 16 -13 36 -8 95 4 41 9 102 11 135
5 98 34 215 53 215 3 0 7 14 8 32 1 17 7 36 13 42 5 5 10 18 10 28 0 10 5 18
10 18 6 0 10 7 10 15 0 8 7 15 15 15 8 0 15 7 15 15 0 8 7 15 15 15 8 0 14 3
13 8 -3 13 20 58 45 88 13 16 27 39 31 52 4 12 12 22 18 22 6 0 41 30 77 68
72 73 122 112 145 112 8 0 18 5 21 10 3 6 15 10 26 10 10 0 19 4 19 9 0 5 14
14 30 20 34 11 37 22 13 42 -53 44 -71 172 -35 252 17 39 102 141 102 123 0
-3 26 6 58 20 39 18 74 25 112 25 30 0 77 7 105 15 75 23 176 44 215 44 l35 0
-25 15 c-67 39 -125 63 -130 55 -4 -6 -19 -6 -40 0 -45 13 -131 11 -200 -4z
m147 -57 c46 -15 51 -30 6 -17 -21 6 -69 8 -108 6 -107 -7 -207 -66 -277 -162
-30 -42 -36 -41 -14 2 36 69 177 168 251 176 14 1 28 5 31 8 7 8 70 0 111 -13z
m94 -93 c5 3 9 1 9 -4 0 -5 6 -9 13 -9 38 -3 113 -15 122 -21 20 -13 140 -50
147 -46 13 8 153 -85 164 -110 11 -25 11 -25 -13 -9 -13 9 -21 18 -19 21 14
14 -81 66 -139 76 -22 4 -51 10 -65 13 -22 5 -19 0 23 -45 26 -28 47 -54 47
-59 0 -4 -15 9 -32 29 -49 53 -93 71 -167 72 -77 0 -51 14 29 16 l55 1 -50 19
c-102 40 -191 16 -282 -78 -28 -29 -64 -80 -79 -113 -15 -32 -30 -57 -32 -54
-3 2 10 35 28 72 40 81 107 151 177 184 49 22 67 39 42 39 -5 0 -7 5 -3 12 6
9 9 9 12 0 2 -7 8 -10 13 -6z m-221 -99 c0 -2 -12 -14 -27 -28 l-28 -24 24 28
c23 25 31 32 31 24z m730 -183 c25 -17 65 -41 90 -54 68 -36 153 -94 142 -98
-27 -9 -168 63 -277 141 -55 40 -155 149 -155 170 0 4 35 -23 78 -60 43 -38
98 -83 122 -99z m-601 84 c-11 -56 0 -107 26 -114 6 -2 26 19 45 46 19 26 48
56 65 65 l30 17 -31 -29 c-17 -15 -44 -45 -60 -67 -28 -38 -28 -39 -9 -53 19
-15 19 -15 -4 -10 -13 3 -34 1 -45 -5 -17 -9 -19 -8 -9 3 10 10 8 18 -10 37
-17 18 -22 35 -21 75 0 47 19 105 30 95 2 -3 -1 -30 -7 -60z m-203 14 c-17
-16 -18 -16 -5 5 7 12 15 20 18 17 3 -2 -3 -12 -13 -22z m143 -63 c-22 -35
-21 -25 3 23 7 15 14 23 16 19 2 -5 -7 -24 -19 -42z m478 -26 c-4 -17 -4 -17
-12 0 -4 9 -4 25 0 35 8 16 8 16 12 0 3 -10 3 -26 0 -35z m-1257 -28 c0 -3
-37 -23 -83 -44 -84 -39 -123 -73 -172 -152 -62 -97 -46 -256 37 -377 36 -53
46 -45 23 19 -9 24 -19 89 -22 145 -6 108 4 142 65 222 40 53 42 37 4 -35
l-36 -68 37 33 c21 17 41 32 45 32 4 0 -12 -17 -36 -38 -34 -29 -46 -48 -58
-94 -16 -62 -12 -88 40 -278 38 -140 40 -151 22 -115 -19 39 -19 28 -1 -70 16
-88 20 -205 7 -205 -5 0 -13 -10 -18 -22 -6 -13 -8 -16 -5 -8 9 25 8 222 -2
270 -5 25 -9 59 -8 75 0 17 -7 42 -17 56 -9 14 -35 53 -58 86 l-41 61 -11 -32
c-7 -17 -34 -57 -62 -88 -53 -60 -83 -117 -74 -141 3 -8 1 -18 -4 -21 -9 -6
-22 61 -22 116 0 36 35 105 94 186 25 34 46 69 46 76 0 29 -18 24 -56 -15 -36
-37 -73 -61 -99 -63 -17 -2 -81 -143 -99 -222 -13 -53 -16 -96 -12 -147 3 -46
2 -63 -3 -47 -15 42 -12 169 5 228 21 75 80 186 118 224 16 16 46 40 65 53 52
33 65 52 85 129 30 121 121 235 188 237 13 0 43 9 68 19 53 22 50 21 50 15z
m183 -22 c-7 -2 -19 -2 -25 0 -7 3 -2 5 12 5 14 0 19 -2 13 -5z m105 -19 c4
-4 -4 -4 -18 -1 -14 4 -35 7 -48 7 -13 0 -21 4 -18 9 6 9 73 -2 84 -15z m54
-3 c13 -5 32 -12 42 -15 10 -4 17 -9 14 -12 -7 -7 -88 19 -88 28 0 10 4 10 32
-1z m-274 -48 c-16 -2 -40 -2 -55 0 -16 2 -3 4 27 4 30 0 43 -2 28 -4z m156
-18 c50 -21 42 -28 -9 -10 -22 8 -51 14 -65 15 -14 0 -32 5 -40 10 -23 16 70
3 114 -15z m-429 -80 c-37 -77 -47 -76 -14 1 20 47 39 77 45 72 1 -2 -13 -35
-31 -73z m421 25 c8 -7 25 -27 37 -44 21 -31 21 -30 -20 5 -62 56 -140 60
-251 13 -22 -9 -32 -10 -25 -3 6 6 36 20 65 31 59 21 167 20 194 -2z m-545
-28 c-5 -10 -34 -46 -65 -80 -30 -34 -60 -71 -66 -83 -7 -11 -14 -18 -17 -15
-3 3 2 18 12 33 18 26 137 163 143 163 1 0 -2 -8 -7 -18z m1558 -105 c12 -26
50 -84 84 -130 82 -107 82 -106 55 -99 -83 21 -191 210 -187 327 1 29 1 29 14
-10 7 -22 22 -62 34 -88z m476 88 c17 -10 46 -37 65 -59 20 -24 25 -33 11 -21
-15 13 -21 14 -16 5 14 -26 37 -50 45 -45 4 2 20 -10 36 -28 l29 -32 -32 29
c-18 17 -33 24 -33 17 0 -7 -5 -9 -11 -5 -8 4 -8 0 0 -15 14 -25 23 -28 14 -3
-15 42 19 -8 37 -54 28 -75 9 -91 -25 -20 -31 65 -53 77 -26 14 34 -78 32 -94
-2 -23 -19 39 -51 92 -71 119 -37 48 -33 52 13 12 l24 -21 -18 28 c-9 15 -29
36 -44 48 -14 11 -21 18 -15 15 7 -3 15 1 18 10 3 8 2 13 -3 10 -5 -3 -17 6
-26 20 -18 28 -16 28 30 -1z m-1765 1 c0 -2 -7 -7 -16 -10 -8 -3 -12 -2 -9 4
6 10 25 14 25 6z m169 -19 c-22 -17 -100 -57 -95 -48 8 12 75 50 90 51 5 0 7
-1 5 -3z m1305 -242 c4 -11 -2 -4 -13 15 -21 36 -61 153 -60 174 0 9 24 -53
73 -189z m-1348 162 c-10 -7 -32 -23 -48 -36 -16 -13 -31 -21 -34 -18 -7 7 75
67 90 66 6 0 3 -6 -8 -12z m1465 -14 c13 -16 12 -17 -3 -4 -17 13 -22 21 -14
21 2 0 10 -8 17 -17z m-1543 -15 c-7 -13 -12 -26 -13 -29 0 -3 -7 -13 -16 -22
-9 -9 -27 -37 -39 -62 -26 -54 -34 -54 -19 0 16 58 65 125 97 134 1 1 -3 -9
-10 -21z m1583 -15 c13 -16 12 -17 -3 -4 -17 13 -22 21 -14 21 2 0 10 -8 17
-17z m-1734 -140 c-2 -27 -3 -5 -3 47 0 52 1 74 3 48 2 -27 2 -69 0 -95z
m1747 37 c44 -56 71 -100 62 -100 -3 0 -24 28 -47 63 -23 34 -54 75 -68 92
-14 16 -18 23 -8 15 11 -8 38 -39 61 -70z m406 60 c6 -11 7 -20 2 -20 -6 0
-12 9 -15 20 -3 11 -3 20 -1 20 2 0 8 -9 14 -20z m-256 -77 c20 -28 48 -84 61
-124 26 -74 33 -125 12 -79 -6 14 -25 54 -41 90 -17 36 -30 71 -29 77 0 7 -3
11 -7 8 -5 -3 -12 0 -16 6 -5 8 -3 9 6 4 8 -5 11 -3 8 6 -3 8 -10 13 -16 12
-6 -2 -9 4 -5 13 3 9 1 14 -7 12 -7 -2 -14 7 -15 20 -2 26 -2 26 49 -45z
m-2130 -20 c-20 -26 -52 -79 -71 -118 -18 -38 -30 -59 -26 -45 3 14 7 37 8 52
1 16 25 56 59 98 64 79 89 90 30 13z m2201 -51 c8 -25 13 -48 10 -50 -2 -3 -7
4 -11 14 -12 34 -43 98 -60 124 -9 14 -3 11 15 -9 16 -19 37 -55 46 -79z
m-229 -15 c27 -53 64 -105 118 -167 17 -19 5 -10 -28 20 -67 63 -147 176 -139
196 8 21 21 8 49 -49z m-1696 -17 c-7 -53 -8 -53 -9 -13 -1 38 7 78 14 71 2
-2 0 -28 -5 -58z m1454 24 c3 -8 2 -12 -4 -9 -6 3 -10 10 -10 16 0 14 7 11 14
-7z m56 -39 l35 -40 -33 30 c-19 17 -38 39 -44 50 -6 11 -7 16 -2 10 5 -5 25
-28 44 -50z m289 -9 c-3 -3 -11 5 -18 17 -13 21 -12 21 5 5 10 -10 16 -20 13
-22z m33 -101 c6 -11 9 -18 6 -15 -2 3 -29 32 -58 65 l-54 60 48 -45 c26 -25
52 -54 58 -65z m-2311 30 c-5 -20 -7 -43 -4 -51 7 -20 -6 -106 -16 -99 -20 12
-20 81 1 137 23 64 36 72 19 13z m2009 -30 c0 5 -10 20 -22 33 -34 37 -3 17
80 -52 73 -62 91 -89 50 -79 -23 5 -23 5 -3 -10 11 -9 15 -17 9 -17 -13 0 -76
65 -69 71 3 3 -7 16 -22 30 -25 22 -26 22 -9 1 11 -12 17 -23 15 -25 -2 -2
-26 22 -54 53 -35 38 -38 45 -12 21 20 -19 37 -31 37 -26z m-1669 -100 c16
-86 13 -246 -6 -308 -8 -29 -27 -70 -41 -92 -17 -26 -23 -32 -19 -16 6 21 4
23 -14 18 -11 -3 -21 -3 -21 -1 0 11 45 122 56 139 9 12 14 49 15 95 1 62 2
69 9 40 11 -47 2 -144 -20 -210 -21 -63 -18 -81 5 -27 38 92 44 242 15 400 -6
31 -7 63 -3 70 5 8 9 1 11 -18 1 -16 7 -57 13 -90z m19 40 c4 -25 4 -42 0 -38
-10 10 -23 99 -14 90 4 -4 10 -27 14 -52z m1994 -100 c57 -44 122 -128 147
-193 17 -46 22 -82 25 -187 l3 -130 -23 78 c-13 43 -29 84 -35 90 -9 9 -11 7
-6 -8 5 -15 4 -17 -3 -6 -6 8 -8 20 -5 27 4 12 -56 88 -64 80 -3 -3 -24 18
-46 47 -32 40 -42 48 -45 34 -2 -10 2 -25 9 -33 6 -8 9 -17 6 -20 -6 -6 -25
33 -76 154 -16 39 -26 72 -21 72 6 0 10 -4 10 -9 0 -5 12 -23 26 -40 14 -17
22 -36 18 -42 -4 -7 -3 -9 3 -6 6 4 16 -6 22 -23 5 -17 13 -30 17 -30 3 0 4 7
0 15 -11 30 4 14 30 -32 15 -27 49 -69 74 -94 26 -26 58 -69 71 -95 20 -42 24
-46 27 -25 5 34 -16 144 -39 207 -16 41 -38 71 -87 119 -37 35 -98 94 -137
131 -64 62 -65 63 -5 8 36 -33 82 -73 104 -89z m-2227 83 c-8 -12 -21 -48 -28
-78 -13 -56 -39 -109 -39 -80 0 26 38 140 55 167 21 31 32 23 12 -9z m2453
-105 c21 -67 26 -193 10 -243 -5 -16 -8 14 -9 85 -1 109 -13 169 -46 236 l-16
34 20 -23 c12 -13 30 -53 41 -89z m-2300 -25 c0 -86 -15 -188 -28 -188 -4 0
-4 64 -1 142 8 174 7 166 19 148 5 -8 10 -54 10 -102z m1905 102 c3 -5 1 -10
-4 -10 -6 0 -11 5 -11 10 0 6 2 10 4 10 3 0 8 -4 11 -10z m-1818 -47 c-3 -10
-5 -4 -5 12 0 17 2 24 5 18 2 -7 2 -21 0 -30z m2422 -16 c1 -5 -3 -5 -9 -2 -5
3 -10 16 -9 28 0 21 1 21 9 2 5 -11 9 -24 9 -28z m61 5 c0 -15 -3 -38 -7 -51
l-6 -23 -13 23 c-18 33 -17 47 1 23 15 -18 15 -16 9 25 -4 31 -3 42 5 37 6 -4
11 -19 11 -34z m-2479 -150 c-7 -12 -8 0 -6 43 7 98 9 103 12 37 2 -34 0 -70
-6 -80z m2421 36 c10 -34 9 -41 -17 -78 -36 -51 -49 -51 -29 1 12 29 15 57 11
97 -5 52 -4 55 9 37 8 -11 20 -36 26 -57z m158 -62 c0 -14 -4 -26 -10 -26 -13
0 -42 58 -35 70 3 5 -1 7 -9 4 -9 -4 -20 5 -30 25 -29 55 -16 57 34 4 34 -34
50 -60 50 -77z m-2803 57 c-5 -46 -35 -90 -62 -90 -24 0 -26 26 -5 65 10 20
19 33 20 29 0 -4 -7 -22 -16 -38 -8 -17 -13 -33 -10 -36 6 -7 56 95 56 115 0
7 5 10 11 6 7 -4 9 -24 6 -51z m2723 -65 c11 -40 0 -108 -23 -139 -16 -22 -78
-59 -97 -59 -10 1 -9 4 5 12 54 30 87 76 100 138 l6 35 -23 -38 c-25 -39 -72
-77 -97 -77 -8 0 3 13 25 29 45 33 70 73 59 92 -11 17 -12 69 -2 69 5 0 5 6 2
13 -4 6 3 1 14 -13 12 -14 26 -42 31 -62z m-1586 -10 c-3 -4 -9 -8 -15 -8 -5
0 -9 4 -9 8 0 5 7 9 15 9 8 0 12 -4 9 -9z m-1405 -27 c-25 -21 -49 -27 -49
-13 0 9 63 42 69 36 2 -2 -7 -12 -20 -23z m3070 -32 c-13 -26 -23 -18 -14 10
3 12 11 19 16 16 5 -4 5 -14 -2 -26z m-3047 -10 c-19 -17 -37 -27 -40 -23 -4
4 -1 9 5 11 7 3 23 13 35 23 37 31 36 22 0 -11z m2070 11 c10 0 22 -10 29 -22
10 -18 9 -20 -5 -15 -14 6 -16 3 -11 -14 6 -19 4 -20 -27 -13 -18 4 -59 9 -90
10 -131 4 -128 3 -122 19 9 23 111 46 174 39 19 -2 43 -4 52 -4z m113 -50 c10
-11 16 -20 13 -20 -3 0 -13 9 -23 20 -10 11 -16 20 -13 20 3 0 13 -9 23 -20z
m-555 0 c13 -9 13 -10 0 -9 -8 0 -24 4 -35 9 l-20 9 20 0 c11 0 27 -4 35 -9z
m32 -52 c-11 -11 -32 -3 -32 12 0 4 9 6 21 3 13 -4 17 -9 11 -15z m386 -31 c4
-21 -25 -34 -40 -19 -8 8 -8 16 2 27 16 19 34 15 38 -8z m-94 -31 c-6 -39 -3
-48 19 -70 51 -51 147 -24 162 44 4 17 13 30 21 30 17 0 47 -57 38 -72 -5 -8
-2 -9 9 -5 10 4 16 2 14 -6 -1 -7 6 -11 15 -9 9 1 19 -2 23 -8 3 -6 0 -7 -10
-4 -11 5 -14 2 -9 -12 6 -16 5 -17 -7 -6 -17 16 -37 16 -21 0 17 -17 15 -33
-3 -18 -25 21 -17 4 14 -29 28 -30 55 -45 33 -18 -9 10 -3 12 26 9 35 -4 72
-26 72 -42 0 -22 -309 -54 -432 -45 l-87 7 -40 52 c-54 70 -137 228 -116 219
9 -3 21 -17 26 -30 5 -13 13 -22 18 -19 5 3 18 -16 29 -42 28 -62 54 -99 83
-119 24 -16 24 -16 7 3 -29 34 -21 51 10 22 39 -37 82 -62 82 -49 0 6 -4 11
-9 11 -5 0 -32 18 -61 41 -38 30 -50 46 -48 62 2 14 9 20 18 18 8 -2 31 -6 50
-8 30 -3 32 -2 13 7 -34 14 -28 47 16 91 21 22 41 39 45 39 3 0 3 -20 0 -44z
m-300 -9 c18 -23 31 -51 32 -70 1 -18 5 -40 9 -50 6 -13 4 -16 -9 -11 -23 9
-20 -2 12 -44 l27 -37 -27 18 c-16 10 -28 14 -28 10 0 -26 23 -83 39 -97 11
-10 23 -35 26 -57 4 -21 11 -39 16 -39 5 0 9 -9 9 -19 0 -11 20 -36 45 -57 56
-45 59 -63 5 -29 -52 33 -51 17 2 -30 38 -35 42 -37 54 -20 23 32 12 95 -26
147 -31 42 -62 67 -44 36 4 -8 3 -10 -2 -5 -5 5 -9 12 -10 15 -1 17 -33 80
-43 86 -5 4 -8 13 -5 21 4 8 1 29 -5 46 -15 44 -6 49 12 8 22 -52 61 -106 104
-141 72 -60 106 -83 116 -80 20 6 58 -9 51 -20 -4 -6 -1 -9 7 -6 8 3 25 -2 39
-12 68 -46 56 -29 -23 34 -20 16 -37 36 -37 43 0 8 -3 12 -7 10 -5 -2 -18 6
-29 17 l-22 21 79 1 c44 1 85 3 92 3 6 1 29 -2 49 -7 21 -6 36 -6 33 -2 -3 4
24 11 59 15 43 4 66 11 70 21 3 9 10 12 16 9 6 -4 8 -11 5 -16 -4 -5 -2 -9 2
-9 15 0 64 -51 58 -61 -4 -5 5 -13 19 -19 14 -5 26 -15 26 -21 0 -8 -4 -8 -15
1 -12 10 -15 10 -15 -4 0 -20 -9 -20 -32 1 -30 27 -20 9 13 -23 24 -23 29 -25
24 -9 -5 16 -1 14 17 -7 23 -27 46 -39 33 -18 -4 6 1 7 11 3 14 -5 16 -2 10
20 -3 15 -3 27 2 27 4 0 16 6 26 13 18 13 18 15 0 42 -19 29 -19 29 1 21 15
-5 17 -4 9 4 -14 14 4 60 24 60 6 0 12 7 12 15 0 9 -6 18 -12 20 -8 3 -13 24
-14 51 -2 112 79 -15 96 -151 11 -84 10 -396 -1 -389 -3 2 -7 -20 -8 -49 0
-32 -6 -56 -15 -62 -11 -8 -11 -16 -4 -30 9 -15 8 -17 -6 -12 -11 4 -16 1 -16
-9 0 -11 5 -14 16 -10 14 5 15 4 4 -9 -7 -8 -8 -15 -3 -15 5 0 10 -11 11 -25
1 -14 -2 -25 -6 -25 -16 1 -50 47 -62 85 -7 22 -16 44 -21 50 -12 13 -11 4 6
-44 8 -23 15 -45 16 -49 5 -21 12 -31 20 -27 4 3 13 -3 18 -14 14 -25 14 -42
0 -19 -5 10 -14 18 -19 18 -11 0 0 -32 14 -42 15 -10 2 -20 -17 -13 -13 6 -26
32 -33 70 -1 6 -3 13 -4 18 -1 4 -3 10 -4 15 -1 4 -7 16 -13 27 -11 18 -12 18
-13 3 0 -10 3 -18 8 -18 6 0 11 -23 15 -77 1 -13 5 -23 9 -23 10 0 24 -29 32
-65 l6 -30 -22 25 c-17 20 -20 21 -14 5 20 -50 19 -52 -16 -46 -26 4 -28 6
-10 9 12 2 22 8 22 13 0 6 -4 7 -10 4 -13 -8 -13 11 1 37 8 16 8 22 -2 29 -7
4 -17 5 -22 2 -5 -3 -4 4 2 15 16 30 15 47 -3 33 -10 -9 -15 -8 -20 4 -3 9 0
15 9 15 8 0 12 6 9 14 -3 8 -12 12 -20 9 -9 -3 -14 1 -14 12 0 9 5 13 10 10 7
-4 9 2 5 17 -4 15 -1 29 8 36 15 13 11 66 -5 56 -5 -3 -6 -14 -3 -25 4 -11 0
-26 -9 -35 -9 -8 -16 -11 -16 -6 0 5 3 12 8 16 11 11 9 65 -3 63 -5 -1 -9 4
-7 11 7 33 -19 -3 -29 -41 -6 -23 -15 -44 -19 -47 -5 -3 -10 -27 -12 -53 -2
-26 -6 -47 -9 -47 -7 0 -3 -111 5 -137 3 -10 2 -24 -3 -32 -6 -9 -4 -32 5 -60
9 -29 10 -49 4 -55 -6 -6 -10 -18 -10 -28 0 -10 -4 -18 -10 -18 -16 0 -11 -26
9 -44 15 -14 17 -24 11 -53 -5 -19 -13 -40 -19 -46 -15 -15 -14 -60 0 -51 7 4
10 1 7 -6 -10 -31 -25 -17 -45 42 -12 35 -25 72 -29 82 -5 14 -4 17 4 12 15
-9 15 -4 0 31 -6 15 -11 31 -10 36 1 4 -2 7 -7 7 -11 0 -45 126 -38 145 7 17
-11 75 -23 75 -5 0 -25 35 -46 77 -20 43 -43 82 -51 86 -8 5 -11 16 -8 27 5
17 -28 100 -41 100 -2 0 1 -10 7 -22 9 -18 9 -21 -1 -12 -6 7 -23 34 -37 60
-13 27 -22 40 -18 29 11 -37 -14 -2 -29 40 -8 23 -15 32 -15 21 -1 -20 -1 -20
-15 -1 -8 11 -12 23 -10 27 3 4 0 16 -6 25 -9 16 -10 15 -5 -4 10 -36 -3 -27
-20 14 -8 20 -18 33 -22 30 -3 -4 -16 1 -27 10 -21 18 -21 18 -4 -2 9 -11 28
-46 43 -77 15 -32 31 -56 35 -53 5 3 12 0 16 -6 4 -8 3 -9 -4 -5 -35 22 30
-93 100 -178 40 -48 56 -75 52 -88 -3 -11 0 -18 7 -18 7 0 10 -3 7 -6 -8 -7
-69 25 -86 45 -12 14 -13 11 -8 -16 3 -19 1 -33 -4 -33 -6 0 -10 5 -10 10 0 6
-5 10 -11 10 -5 0 -7 -4 -4 -10 3 -5 1 -10 -5 -10 -7 0 -10 6 -7 14 3 7 -8 29
-24 47 -17 19 -27 27 -23 19 9 -17 13 -50 6 -50 -13 0 -31 38 -32 65 -1 27 -2
28 -14 13 -12 -17 -15 -16 -49 1 -20 10 -34 15 -31 10 3 -5 1 -9 -5 -9 -5 0
-13 5 -16 10 -4 6 -12 4 -21 -5 -22 -21 -34 -19 -36 8 0 12 -4 0 -8 -28 -6
-48 -6 -49 -14 -20 -5 17 -13 35 -18 42 -11 14 -34 7 -36 -10 0 -7 -4 -22 -8
-35 -5 -16 -3 -22 6 -20 8 2 19 -8 27 -22 7 -15 20 -24 30 -22 13 2 15 0 5 -6
-10 -7 -10 -11 3 -22 8 -7 15 -20 15 -29 -1 -13 -2 -13 -12 3 -12 21 -71 75
-97 90 -15 8 -15 8 0 -10 18 -22 14 -58 -7 -50 -20 8 -34 -23 -21 -51 5 -12
15 -20 20 -16 6 4 8 0 4 -10 -3 -10 -2 -17 3 -17 6 0 10 -6 10 -14 0 -15 68
-28 76 -14 3 4 0 8 -7 8 -11 0 -11 2 0 12 10 11 15 9 29 -9 11 -15 25 -21 38
-19 12 3 25 -3 32 -15 14 -22 9 -24 -18 -6 -17 10 -22 9 -29 -2 -6 -9 -11 -10
-15 -2 -4 6 -12 11 -19 11 -8 0 -8 -3 1 -12 9 -9 5 -17 -14 -35 -14 -12 -30
-23 -36 -23 -7 0 -6 -5 2 -15 13 -16 1 -21 -16 -6 -14 13 -64 23 -64 12 0 -11
-42 -11 -50 0 -3 4 -18 10 -33 13 -33 6 -68 37 -49 44 6 2 12 10 12 18 0 9 4
13 8 10 5 -3 20 1 35 9 14 7 28 11 30 8 3 -2 3 21 1 53 -4 67 -10 77 -24 39
-13 -34 -20 -30 -13 8 3 15 12 27 20 27 8 0 11 5 8 11 -4 6 4 22 16 36 23 25
23 25 2 14 -12 -6 -23 -16 -26 -23 -3 -10 -8 -10 -17 -2 -9 9 -6 15 12 28 19
14 21 18 8 26 -12 8 -10 10 8 10 13 0 38 10 55 22 18 13 44 23 58 24 39 2 50
12 43 41 -5 19 -4 24 6 18 7 -4 16 -2 22 6 8 11 9 10 4 -3 -7 -23 10 -33 18
-11 4 11 1 22 -8 29 -22 15 -20 23 3 17 11 -3 22 -16 25 -29 4 -13 17 -31 30
-39 21 -14 28 -14 65 1 45 18 65 42 51 64 -5 8 -4 22 2 33 8 16 7 19 -5 14
-10 -4 -19 4 -27 23 -7 16 -23 41 -36 55 -23 25 -41 34 -28 14 3 -6 -8 -4 -24
5 -21 11 -33 12 -37 5 -4 -6 -13 -8 -20 -5 -13 4 -22 -2 -85 -57 -32 -28 -79
-49 -93 -40 -6 3 -7 1 -3 -5 4 -7 14 -12 22 -12 8 0 17 -6 20 -14 8 -20 34
-28 49 -16 9 8 15 8 20 0 3 -5 -1 -10 -9 -10 -9 0 -13 -6 -10 -13 7 -19 -76
-21 -119 -4 -19 8 -44 31 -56 51 -13 20 -27 36 -33 36 -5 0 -3 7 6 15 18 19
26 19 40 1 6 -8 22 -17 36 -21 23 -5 23 -5 8 8 -10 8 -18 20 -18 27 0 7 -6 10
-14 7 -7 -3 -24 5 -37 17 -15 14 -37 23 -57 23 -17 0 -30 -3 -27 -5 10 -10
-17 -31 -32 -25 -11 4 -14 2 -9 -5 4 -8 -2 -16 -16 -21 -13 -6 -18 -10 -13
-11 6 -1 1 -5 -10 -9 -11 -5 -20 -13 -20 -19 0 -6 -9 -18 -20 -27 -14 -12 -16
-18 -7 -21 6 -3 12 -10 12 -15 0 -6 -4 -7 -10 -4 -5 3 -10 -1 -10 -10 0 -30
19 -53 49 -60 43 -9 57 -29 42 -62 -8 -18 -9 -29 -1 -37 5 -5 10 -17 10 -25 0
-9 -17 4 -39 29 -22 25 -43 42 -47 38 -4 -5 1 -17 10 -27 18 -19 14 -47 -5
-35 -5 3 -7 9 -4 14 6 10 -23 35 -31 27 -4 -3 4 -20 16 -36 23 -33 17 -40 -14
-16 -29 22 -35 19 -30 -15 5 -27 3 -30 -18 -27 -13 1 -23 -3 -22 -10 1 -7 2
-25 3 -39 0 -14 5 -23 10 -19 5 3 12 1 15 -4 8 -13 -26 -23 -38 -11 -17 17
-29 11 -23 -10 3 -11 2 -18 -3 -15 -9 6 -31 -19 -47 -54 -11 -25 -11 -25 -10
12 0 22 5 37 12 37 8 0 14 26 18 73 7 85 25 146 38 125 6 -9 9 -7 9 10 0 15
-4 21 -11 16 -7 -4 -10 -1 -7 7 3 8 10 13 16 12 5 -1 13 12 16 30 5 25 9 29
16 17 8 -12 10 -11 10 8 0 12 9 31 21 43 15 15 20 29 16 52 -7 46 28 114 74
144 40 27 52 44 43 68 -9 23 -21 18 -50 -22 -16 -21 -33 -42 -39 -48 -19 -16
-45 -72 -45 -96 0 -31 -43 -119 -57 -119 -7 0 -13 -8 -13 -17 0 -10 -17 -47
-36 -83 -20 -36 -41 -75 -48 -87 -6 -13 -14 -23 -18 -23 -4 0 -5 -7 -2 -15 4
-8 1 -15 -5 -15 -6 0 -11 8 -12 18 0 12 -3 10 -10 -7 -5 -14 -7 -31 -5 -38 3
-7 1 -13 -5 -13 -7 0 -9 -12 -7 -30 3 -17 1 -30 -4 -30 -5 0 -8 -10 -6 -22 2
-13 9 -22 16 -20 8 1 11 -2 7 -8 -3 -5 1 -13 11 -17 16 -6 16 -7 0 -19 -10 -7
-13 -15 -7 -18 6 -4 8 -13 4 -22 -8 -21 -34 2 -26 24 3 9 3 14 -2 10 -4 -4 -9
-25 -11 -47 -3 -32 0 -39 11 -34 8 3 15 0 15 -6 0 -6 -7 -11 -15 -11 -8 0 -14
-3 -14 -8 1 -4 -1 -26 -6 -49 -5 -29 -11 -40 -21 -36 -15 6 -29 40 -25 65 1
10 -2 26 -8 35 -8 14 -9 10 -4 -16 4 -24 3 -32 -5 -27 -7 4 -11 27 -9 56 1 37
5 46 15 38 14 -12 15 -4 3 39 -7 23 -6 33 2 36 9 3 8 8 -2 20 -15 19 -33 13
-24 -8 3 -8 0 -15 -6 -15 -6 0 -11 -7 -11 -15 0 -8 -4 -15 -10 -15 -10 0 6 46
22 65 4 5 8 16 8 25 -1 13 -2 13 -13 0 -7 -8 -29 -24 -49 -34 -40 -20 -46 -34
-26 -54 21 -21 -11 -14 -34 8 -12 10 -25 17 -29 14 -5 -3 -21 6 -36 20 -15 14
-30 23 -34 20 -4 -2 -15 6 -25 18 -16 22 -15 16 2 -27 4 -9 1 -15 -9 -15 -14
0 -53 77 -76 150 -10 32 -27 136 -52 319 -12 89 2 226 27 268 10 19 11 22 1
11 -8 -10 -17 -18 -21 -18 -14 0 -4 35 17 59 12 14 14 19 4 12 -9 -8 -20 -12
-22 -9 -3 3 -8 36 -11 74 -6 68 -5 69 13 48 10 -11 33 -26 50 -33 18 -7 30
-18 26 -24 -3 -6 -1 -7 6 -3 17 11 53 -3 44 -17 -5 -9 -3 -9 8 -1 9 8 58 11
134 11 l120 -2 -55 -43 c-61 -49 -200 -190 -200 -204 0 -5 11 4 25 19 45 49
122 127 142 143 10 8 39 31 63 51 42 34 54 38 182 58 76 12 142 19 148 16 6
-3 13 1 16 9 6 16 44 23 44 8 0 -10 -37 -42 -49 -42 -5 0 -14 -7 -21 -15 -10
-12 -10 -18 0 -30 7 -9 10 -18 7 -22 -4 -3 -2 -12 4 -20 9 -10 8 -18 -3 -31
-29 -34 -31 -47 -3 -22 l29 25 -23 -32 c-12 -18 -18 -33 -14 -33 5 0 20 19 33
42 12 22 17 37 10 33 -9 -5 -11 -4 -6 3 4 7 13 12 21 12 8 0 16 4 19 9 3 4 -6
7 -19 5 -21 -2 -23 1 -15 14 17 29 37 52 45 52 5 0 1 -8 -7 -17 -8 -10 -19
-25 -23 -33 -7 -12 -6 -13 7 -3 8 7 19 9 23 5 5 -4 6 -2 2 4 -3 5 5 30 19 54
14 24 33 73 44 109 10 36 35 112 55 167 33 92 39 103 68 112 18 6 54 10 81 9
44 -2 52 -6 80 -40z m-1804 25 c0 9 3 9 12 0 7 -7 26 -12 43 -13 25 0 27 -2
10 -8 -22 -9 -99 -6 -116 5 -19 11 13 24 33 13 13 -7 18 -6 18 3z m2395 -22
c27 -30 12 -34 -15 -5 -13 14 -19 25 -13 25 5 0 18 -9 28 -20z m-1775 -100 c0
-86 -57 -131 -162 -128 l-63 1 70 6 c77 7 108 20 126 53 16 29 14 114 -2 136
-11 14 -9 13 9 -2 17 -15 22 -30 22 -66z m2409 34 c14 -12 -19 -1 -35 12 -18
14 -18 14 6 3 14 -6 27 -13 29 -15z m-49 1 c11 -13 10 -14 -4 -9 -9 3 -16 10
-16 15 0 13 6 11 20 -6z m-81 -57 c18 -28 25 -45 16 -38 -15 13 -60 90 -52 90
2 0 19 -23 36 -52z m-274 -57 c-8 -7 -45 36 -45 53 0 6 12 -2 26 -18 14 -15
22 -31 19 -35z m359 -10 c-2 -3 -19 10 -37 28 l-32 34 37 -29 c20 -15 35 -30
32 -33z m93 32 c-1 -16 -11 -38 -22 -51 -26 -30 -106 -88 -134 -97 -17 -5 -20
-11 -14 -23 4 -10 8 -75 9 -147 1 -71 4 -150 9 -175 5 -34 3 -56 -10 -85 -11
-26 -19 -79 -22 -150 -4 -87 -9 -120 -28 -160 l-23 -50 5 145 c2 80 8 168 13
195 5 30 5 51 -1 53 -5 2 -7 8 -4 13 12 18 15 81 6 120 -7 33 -6 47 9 72 14
26 16 43 11 85 -4 29 -5 55 -2 57 14 14 7 35 -10 35 -29 0 -14 17 22 25 24 5
28 10 19 20 -9 11 -6 16 17 21 15 4 43 18 61 31 18 14 32 19 32 12 0 -7 3 -10
6 -7 3 4 1 16 -6 27 -8 16 -8 21 2 21 8 0 21 9 31 20 23 27 27 25 24 -7z m286
-76 c7 -18 -23 -54 -55 -66 -29 -11 -62 -4 -131 29 -46 22 -33 36 14 16 40
-17 112 -7 137 18 20 19 28 20 35 3z m-828 -68 c11 -17 -1 -21 -15 -4 -8 9 -8
15 -2 15 6 0 14 -5 17 -11z m-455 -24 c16 -19 0 -19 -26 0 -16 12 -16 14 -3
15 9 0 22 -7 29 -15z m588 -46 c12 -18 11 -19 -6 -10 -11 6 -22 17 -25 25 -8
21 16 10 31 -15z m-2670 -53 c-7 -8 -16 -12 -21 -9 -11 7 2 23 19 23 12 0 12
-2 2 -14z m79 -8 c-3 -8 -6 -5 -6 6 -1 11 2 17 5 13 3 -3 4 -12 1 -19z m507
16 c9 -4 21 -15 27 -26 11 -20 10 -20 -12 -4 -13 9 -41 16 -63 16 -83 0 -164
-134 -154 -255 3 -33 1 -52 -5 -48 -5 3 -7 39 -5 82 10 157 114 273 212 235z
m1410 -43 c-3 -3 -15 6 -27 18 l-22 24 27 -19 c14 -10 24 -21 22 -23z m1119
-66 c-4 -52 -14 -89 -39 -142 -35 -74 -67 -104 -38 -35 32 75 33 81 22 84 -8
3 -7 16 4 44 9 22 19 62 23 89 4 28 10 54 13 59 12 21 20 -33 15 -99z m-2846
89 c-3 -3 -12 -4 -19 -1 -8 3 -5 6 6 6 11 1 17 -2 13 -5z m61 -1 c-10 -2 -26
-2 -35 0 -10 3 -2 5 17 5 19 0 27 -2 18 -5z m2889 -19 c6 -20 -15 -36 -38 -29
l-24 8 23 8 c14 5 20 13 16 20 -4 7 -1 10 6 7 8 -2 15 -8 17 -14z m-3169 -76
c-23 -35 -30 -92 -16 -123 10 -22 9 -28 -2 -35 -11 -7 -9 -11 11 -18 43 -17
61 -55 35 -74 -6 -4 -4 -13 3 -22 8 -9 11 -16 8 -16 -17 0 -77 105 -87 153
-11 49 -11 58 4 72 9 9 16 23 16 31 0 18 22 54 34 54 4 0 2 -10 -6 -22z m575
-58 c-15 -18 -37 -36 -48 -42 -14 -6 -13 -3 5 11 14 11 21 21 17 21 -4 0 5 11
20 24 38 33 41 25 6 -14z m-371 8 c-5 -7 -12 -24 -15 -38 l-4 -25 -2 26 c0 14
4 30 11 37 16 16 23 15 10 0z m213 -28 c3 -5 -1 -10 -9 -10 -9 0 -16 5 -16 10
0 6 4 10 9 10 6 0 13 -4 16 -10z m77 -11 c-14 -5 -30 -5 -40 0 -12 7 -5 9 24
9 33 0 36 -2 16 -9z m68 -24 c-27 -28 -104 -69 -121 -63 -7 2 6 9 27 16 21 6
55 25 74 41 43 37 51 39 20 6z m-107 -12 c-13 -2 -35 -2 -50 0 -16 2 -5 4 22
4 28 0 40 -2 28 -4z m87 -67 c-19 -18 -37 -32 -40 -29 -5 4 60 62 70 63 3 0
-11 -15 -30 -34z m-680 -22 c0 -8 -4 -12 -10 -9 -5 3 -10 13 -10 21 0 8 5 12
10 9 6 -3 10 -13 10 -21z m709 -11 c-7 -10 -21 -27 -30 -38 -9 -11 -22 -36
-28 -56 -14 -43 -67 -107 -109 -132 -23 -13 -16 -3 26 40 60 61 97 130 64 119
-15 -5 -15 -5 1 8 9 7 17 22 17 32 0 13 3 15 8 6 6 -9 14 -6 32 13 27 29 39
33 19 8z m1261 -3 c0 -5 -5 -10 -11 -10 -5 0 -7 5 -4 10 3 6 8 10 11 10 2 0 4
-4 4 -10z m-1834 -53 c39 -42 39 -53 0 -43 -20 5 -66 59 -66 78 0 17 36 -2 66
-35z m1814 7 c0 -8 -5 -12 -10 -9 -6 4 -8 11 -5 16 9 14 15 11 15 -7z m-1720
-24 c0 -5 -6 -10 -14 -10 -8 0 -18 5 -21 10 -3 6 3 10 14 10 12 0 21 -4 21
-10z m2460 0 c0 -5 -5 -10 -11 -10 -5 0 -7 5 -4 10 3 6 8 10 11 10 2 0 4 -4 4
-10z m-745 -10 c3 -6 -1 -7 -9 -4 -18 7 -21 14 -7 14 6 0 13 -4 16 -10z m1277
-10 c-12 -5 -27 -21 -34 -35 -10 -22 -8 -30 11 -58 l22 -32 -25 28 c-14 15
-26 37 -26 48 0 24 34 59 58 58 13 0 12 -2 -6 -9z m-1539 -37 c-3 -7 -9 -13
-15 -13 -5 0 -6 -9 -3 -20 4 -11 2 -20 -4 -20 -6 0 -11 7 -11 15 0 8 -4 15
-10 15 -5 0 -15 10 -21 23 -12 21 -11 21 6 7 10 -8 16 -10 12 -3 -4 6 -3 14 3
18 5 3 10 0 10 -7 0 -7 5 -5 11 6 9 14 13 15 19 6 5 -7 6 -19 3 -27z m-1555
-18 c25 3 28 -7 7 -25 -11 -9 -19 -8 -39 7 -14 10 -26 24 -26 31 0 6 -4 12
-10 12 -5 0 -10 5 -10 12 0 6 12 0 28 -13 15 -14 37 -24 50 -24z m2552 35 c0
-5 -2 -10 -4 -10 -3 0 -8 5 -11 10 -3 6 -1 10 4 10 6 0 11 -4 11 -10z m-2375
-10 c3 -5 0 -7 -8 -5 -21 9 -49 -92 -37 -135 l9 -35 -20 24 c-16 20 -19 33
-13 65 12 74 48 119 69 86z m1650 -27 c-3 -9 2 -26 10 -39 21 -33 5 -30 -19 3
-13 17 -16 28 -8 31 6 2 8 10 5 19 -4 11 -3 14 6 9 7 -5 10 -15 6 -23z m-1260
-3 c-3 -6 0 -17 9 -25 8 -8 22 -47 31 -87 18 -81 12 -107 -32 -127 -41 -19
-72 -14 -85 15 -10 22 -9 27 5 36 11 5 16 16 13 26 -8 24 44 172 60 172 3 0 2
-5 -1 -10z m1328 -16 c-9 -15 -19 -21 -21 -15 -4 13 16 41 29 41 5 0 2 -12 -8
-26z m87 0 c0 -8 -4 -13 -9 -10 -5 4 -11 0 -14 -6 -3 -9 -10 -7 -22 7 -16 19
-16 19 -1 -7 15 -25 15 -28 1 -28 -9 0 -13 -4 -10 -10 3 -6 -1 -7 -9 -4 -19 7
-21 47 -3 62 14 12 49 20 60 15 4 -2 7 -11 7 -19z m-1790 -13 c0 -16 6 -31 13
-34 6 -2 9 -8 4 -13 -14 -14 -47 29 -41 54 9 32 24 27 24 -7z m1410 -32 c0
-11 -27 -12 -34 0 -3 4 -3 11 0 14 8 8 34 -3 34 -14z m960 -10 c-6 -10 -16
-19 -23 -18 -9 0 -9 2 1 6 6 2 12 14 12 24 0 11 5 17 10 14 7 -4 7 -13 0 -26z
m-2379 -11 c17 -18 28 -27 24 -20 -10 20 5 14 25 -10 13 -17 15 -27 8 -35 -15
-18 -25 -16 -64 13 -25 19 -34 34 -34 55 0 16 2 29 5 29 3 0 19 -15 36 -32z
m1359 22 c0 -5 -7 -10 -15 -10 -8 0 -15 5 -15 10 0 6 7 10 15 10 8 0 15 -4 15
-10z m270 -50 c0 -4 -6 -10 -14 -13 -10 -4 -12 0 -9 14 5 18 23 18 23 -1z
m400 10 c0 -5 -2 -10 -4 -10 -3 0 -8 5 -11 10 -3 6 -1 10 4 10 6 0 11 -4 11
-10z m-2092 -55 c-3 -4 -16 9 -28 27 l-23 33 28 -27 c16 -15 26 -30 23 -33z
m259 -5 c4 -8 5 -21 4 -28 -1 -8 4 -21 11 -30 12 -15 11 -16 -4 -4 -21 17 -42
78 -32 94 6 9 9 8 12 -2 2 -8 6 -22 9 -30z m993 -4 c0 -5 -7 -3 -15 4 -8 7
-12 17 -9 22 7 10 24 -9 24 -26z m1248 22 c-2 -6 -11 -12 -20 -14 -11 -1 -15
3 -11 12 6 17 36 19 31 2z m102 2 c0 -5 -4 -10 -10 -10 -5 0 -10 5 -10 10 0 6
5 10 10 10 6 0 10 -4 10 -10z m-930 -53 c0 -5 -4 -5 -10 -2 -5 3 -10 14 -10
23 0 15 2 15 10 2 5 -8 10 -19 10 -23z m-115 13 c3 -5 1 -10 -4 -10 -6 0 -11
5 -11 10 0 6 2 10 4 10 3 0 8 -4 11 -10z m205 0 c0 -5 -2 -10 -4 -10 -3 0 -8
5 -11 10 -3 6 -1 10 4 10 6 0 11 -4 11 -10z m150 4 c0 0 -8 -11 -19 -22 -19
-23 -51 -30 -51 -11 0 5 5 7 11 3 8 -4 9 0 4 15 -6 19 -3 21 24 19 17 -1 31
-3 31 -4z m-90 -37 c0 -7 -4 -6 -10 3 -6 10 -10 11 -10 3 0 -7 -9 -13 -20 -13
-18 0 -19 3 -10 20 9 16 15 18 30 10 11 -6 20 -16 20 -23z m135 13 c3 -5 1
-10 -4 -10 -6 0 -11 5 -11 10 0 6 2 10 4 10 3 0 8 -4 11 -10z m-20 -17 c9 -12
10 -24 4 -38 -8 -17 -7 -17 6 2 16 21 17 21 36 2 23 -23 45 -20 42 5 -1 12 8
7 28 -15 16 -18 29 -36 29 -40 0 -4 3 -16 6 -26 3 -10 -6 -3 -21 15 -18 22
-35 32 -53 32 -25 -1 -26 -2 -9 -14 17 -13 16 -14 -3 -19 -22 -6 -95 9 -119
24 -12 8 -9 9 14 4 27 -5 28 -4 10 7 -11 6 -22 14 -25 17 -3 4 -16 12 -30 18
-19 9 -21 12 -7 12 10 1 30 -7 45 -16 23 -15 25 -15 14 -2 -13 18 -7 49 10 49
6 0 17 -8 23 -17z m1105 -21 c3 -3 -5 -2 -17 1 -17 4 -23 1 -23 -11 0 -14 -2
-14 -9 -3 -16 25 -2 42 22 29 12 -6 24 -13 27 -16z m-2790 -7 c14 -19 14 -19
-2 -6 -10 7 -18 18 -18 24 0 6 1 8 3 6 1 -2 9 -13 17 -24z m2280 11 c0 -3 -4
-8 -10 -11 -5 -3 -10 -1 -10 4 0 6 5 11 10 11 6 0 10 -2 10 -4z m-523 -12 c-3
-3 -12 -4 -19 -1 -8 3 -5 6 6 6 11 1 17 -2 13 -5z m-967 -34 c0 -5 -4 -10 -9
-10 -6 0 -13 5 -16 10 -3 6 1 10 9 10 9 0 16 -4 16 -10z m-620 -20 c-8 -5 -17
-7 -19 -4 -3 3 1 9 9 14 8 5 17 7 19 4 3 -3 -1 -9 -9 -14z m703 -49 c3 -24 2
-40 -3 -35 -9 9 -13 36 -11 68 2 30 8 16 14 -33z m-918 22 c-10 -27 -13 -103
-3 -109 4 -3 8 -11 8 -17 0 -7 -5 -4 -11 7 -9 15 -13 16 -20 5 -5 -9 -9 9 -9
48 0 49 4 64 18 72 24 14 25 14 17 -6z m2878 -34 c31 -16 97 -81 97 -95 0 -7
-5 -16 -12 -20 -7 -5 -8 -3 -3 6 9 15 -11 30 -44 30 -16 0 -21 4 -18 14 3 8 3
17 -1 21 -4 4 -7 12 -7 18 0 7 -19 13 -43 15 -23 2 -40 7 -37 13 8 12 42 11
68 -2z m-125 -34 c0 -53 61 -89 141 -83 28 1 51 0 51 -4 0 -17 -115 -8 -147
12 -39 23 -67 64 -59 85 8 22 14 18 14 -10z m-1061 -35 c-4 -17 0 -20 23 -20
16 0 32 -5 35 -10 4 -6 11 -8 16 -5 5 4 9 1 9 -6 0 -9 4 -8 13 3 8 11 23 14
50 11 20 -3 37 -9 37 -14 0 -5 7 -9 15 -9 12 0 35 -29 41 -50 0 -3 3 -12 7
-20 13 -35 13 -46 -2 -57 -14 -10 -14 -11 4 -10 14 1 20 -5 21 -21 1 -12 -1
-20 -4 -18 -10 11 -41 -15 -36 -29 4 -8 1 -15 -6 -15 -7 0 -10 -8 -7 -20 4
-17 2 -20 -14 -15 -22 7 -23 2 -9 -26 8 -14 7 -19 -3 -19 -8 0 -19 -10 -26
-22 -9 -20 -10 -20 -6 -3 4 16 0 21 -15 21 -11 0 -20 -4 -20 -8 0 -4 5 -8 10
-8 6 0 10 -5 10 -11 0 -6 -7 -9 -15 -5 -9 3 -15 0 -15 -10 0 -11 -6 -15 -20
-11 -10 3 -21 0 -23 -6 -2 -6 -9 -7 -16 -3 -9 6 -8 12 6 23 16 13 16 14 1 9
-10 -3 -20 -1 -23 5 -4 5 -11 7 -16 4 -5 -4 -9 6 -9 20 0 14 -4 24 -8 21 -5
-3 -19 29 -32 70 -22 72 -23 74 -42 58 -17 -16 -20 -16 -34 -2 -13 13 -23 14
-53 6 -20 -6 -41 -14 -47 -19 -6 -5 -14 -6 -18 -2 -3 4 -40 6 -81 6 -90 -2
-126 -24 -146 -90 -8 -24 -17 -43 -21 -43 -4 0 -8 -7 -8 -16 0 -11 -5 -14 -16
-10 -12 5 -14 1 -9 -17 4 -15 4 -18 -3 -8 -5 7 -15 10 -21 7 -6 -4 -11 -4 -10
1 4 22 -2 25 -16 7 -8 -10 -15 -14 -14 -9 3 23 -3 31 -36 49 -19 11 -35 23
-35 27 0 5 -18 20 -40 34 -23 14 -38 30 -34 36 3 6 -3 17 -15 25 -12 9 -19 19
-16 24 2 4 -2 28 -9 54 -12 40 -12 46 1 46 10 0 12 6 8 20 -5 16 -2 20 19 20
13 0 31 3 39 6 10 3 17 -3 21 -20 4 -16 13 -26 24 -25 10 0 12 3 5 6 -21 8
-15 23 12 33 14 5 25 13 25 18 0 4 26 8 58 8 149 2 330 14 357 24 40 16 102
28 149 29 34 1 38 -1 33 -19z m-767 -55 c11 -13 10 -14 -4 -9 -9 3 -16 10 -16
15 0 13 6 11 20 -6z m-912 -53 c35 -36 21 -37 -16 -1 -18 17 -32 39 -31 48 0
13 2 13 12 -3 7 -11 22 -31 35 -44z m-3 49 c-3 -6 3 -14 12 -20 10 -5 14 -13
10 -18 -5 -4 -15 1 -23 11 -17 23 -18 36 -3 36 5 0 8 -4 4 -9z m789 -6 c3 -9
0 -15 -9 -15 -9 0 -12 6 -9 15 4 8 7 15 9 15 2 0 5 -7 9 -15z m-55 -83 c-5 -2
-9 -16 -9 -30 0 -21 -2 -24 -10 -12 -5 8 -7 23 -4 34 4 10 1 22 -6 26 -7 4 -9
13 -6 19 5 8 14 4 26 -11 10 -13 14 -24 9 -26z m71 13 c0 -12 -14 -35 -21 -35
-4 0 -6 7 -3 15 5 11 2 13 -10 9 -9 -3 -16 -2 -16 4 0 13 21 21 38 14 6 -2 12
-6 12 -7z m-48 -55 c-2 -16 -7 -30 -11 -30 -4 0 -6 14 -3 30 2 17 7 30 11 30
4 0 6 -13 3 -30z m2181 -8 c-6 -25 -64 -62 -96 -62 -42 0 -32 17 26 46 28 15
54 31 55 35 7 16 20 -1 15 -19z m-2160 -2 c-3 -12 -8 -19 -11 -16 -5 6 5 36
12 36 2 0 2 -9 -1 -20z m1940 -91 l62 -8 -68 3 c-56 2 -71 6 -90 25 l-22 23
28 -17 c16 -10 56 -22 90 -26z m-2489 -23 c-6 -15 -34 -31 -34 -19 0 5 30 32
37 33 1 0 0 -6 -3 -14z"/>
<path d="M2951 2740 c-19 -16 -32 -32 -30 -35 3 -2 21 11 39 30 41 42 37 45
-9 5z"/>
<path d="M3023 2662 c-28 -42 -55 -86 -61 -97 -13 -28 -24 -91 -14 -80 100
113 131 157 137 195 12 70 -7 65 -62 -18z"/>
<path d="M2906 2603 c-6 -14 -5 -15 5 -6 7 7 10 15 7 18 -3 3 -9 -2 -12 -12z"/>
<path d="M4846 2431 c-3 -5 2 -15 12 -22 15 -12 16 -12 5 2 -7 9 -10 19 -6 22
3 4 4 7 0 7 -3 0 -8 -4 -11 -9z"/>
<path d="M4850 1745 c19 -14 36 -25 39 -25 11 1 -50 50 -62 50 -6 0 4 -11 23
-25z"/>
<path d="M4591 1734 c46 -34 90 -57 97 -50 3 3 1 6 -4 6 -5 0 -33 16 -63 35
-62 41 -80 46 -30 9z"/>
<path d="M4630 1753 c0 -4 22 -21 48 -37 38 -23 43 -24 28 -7 -26 29 -10 26
31 -5 19 -14 36 -24 39 -21 7 7 -91 77 -107 77 -8 0 -5 -6 7 -15 26 -19 4 -19
-24 1 -12 8 -22 12 -22 7z"/>
<path d="M4721 1756 c14 -15 82 -56 85 -53 5 5 -69 57 -81 57 -4 0 -6 -2 -4
-4z"/>
<path d="M4808 1735 c17 -14 34 -25 38 -25 11 0 -48 49 -59 50 -5 0 5 -11 21
-25z"/>
<path d="M4950 1706 c0 -3 9 -10 20 -16 11 -6 20 -8 20 -6 0 3 -9 10 -20 16
-11 6 -20 8 -20 6z"/>
<path d="M4694 1551 c21 -23 26 -26 26 -11 0 5 -10 15 -22 21 -23 12 -23 12
-4 -10z"/>
<path d="M4779 1546 c37 -28 106 -97 140 -141 12 -16 19 -23 15 -15 -4 8 -18
29 -30 47 -13 17 -24 34 -24 37 0 10 -34 46 -44 46 -5 0 -24 11 -42 25 -18 14
-36 25 -40 25 -4 0 7 -11 25 -24z"/>
<path d="M4083 1523 c-21 -51 -29 -113 -14 -113 6 0 11 9 11 20 0 10 9 42 20
70 23 59 23 60 9 60 -5 0 -17 -17 -26 -37z"/>
<path d="M5040 1552 c0 -5 9 -17 20 -27 18 -17 20 -17 14 -2 -3 9 -10 17 -16
17 -5 0 -6 5 -3 10 3 6 1 10 -4 10 -6 0 -11 -4 -11 -8z"/>
<path d="M4740 1522 c0 -9 36 -44 59 -57 20 -12 -20 40 -41 54 -10 6 -18 7
-18 3z"/>
<path d="M4878 1509 c12 -14 19 -29 15 -34 -5 -4 -3 -5 4 -2 7 4 36 -24 72
-69 34 -42 61 -74 61 -70 0 12 -90 122 -131 161 -24 22 -34 28 -21 14z"/>
<path d="M3857 1503 c-12 -12 -7 -33 8 -33 17 0 19 9 7 28 -5 7 -11 9 -15 5z"/>
<path d="M3471 1471 c-41 -39 -64 -47 -56 -21 3 11 -15 -3 -44 -32 -28 -29
-51 -56 -51 -62 0 -5 19 10 42 32 23 23 44 40 46 37 2 -2 -14 -23 -37 -46 -42
-43 -50 -62 -29 -75 7 -4 8 -3 4 5 -10 15 13 43 27 34 5 -3 7 -2 4 4 -7 11 47
71 108 121 22 17 35 32 28 32 -6 0 -25 -13 -42 -29z"/>
<path d="M4960 1460 c17 -22 34 -40 37 -40 2 0 -10 18 -27 40 -17 22 -34 40
-37 40 -2 0 10 -18 27 -40z"/>
<path d="M3596 1444 c-60 -40 -105 -77 -178 -147 -10 -10 -15 -23 -12 -29 6
-9 9 -8 12 2 9 25 114 120 185 167 37 24 67 46 67 48 0 7 0 7 -74 -41z"/>
<path d="M5010 1471 c0 -6 4 -13 10 -16 6 -3 7 1 4 9 -7 18 -14 21 -14 7z"/>
<path d="M3620 1411 c-84 -59 -248 -216 -237 -227 6 -7 11 -3 72 66 47 54 163
153 224 192 25 15 41 28 35 28 -5 0 -48 -27 -94 -59z"/>
<path d="M3811 1454 c0 -11 3 -14 6 -6 3 7 2 16 -1 19 -3 4 -6 -2 -5 -13z"/>
<path d="M5060 1461 c0 -5 5 -13 10 -16 6 -3 10 -2 10 4 0 5 -4 13 -10 16 -5
3 -10 2 -10 -4z"/>
<path d="M3775 1451 c-3 -5 -1 -12 5 -16 5 -3 10 1 10 9 0 18 -6 21 -15 7z"/>
<path d="M3884 1428 l-19 -23 23 19 c12 11 22 21 22 23 0 8 -8 2 -26 -19z"/>
<path d="M5044 1421 c9 -10 16 -22 14 -27 -3 -8 4 -14 18 -14 3 0 -3 14 -13
30 -9 17 -22 30 -27 30 -5 0 -1 -8 8 -19z"/>
<path d="M3690 1409 c-22 -18 -22 -19 -3 -10 12 6 25 16 28 21 9 15 3 12 -25
-11z"/>
<path d="M3944 1375 c-21 -30 -35 -58 -32 -60 3 -3 21 22 41 55 44 75 39 78
-9 5z"/>
<path d="M5020 1380 c12 -16 24 -30 26 -30 3 0 -4 14 -16 30 -12 17 -24 30
-26 30 -3 0 4 -13 16 -30z"/>
<path d="M3579 1327 c-96 -80 -170 -157 -150 -157 6 0 21 12 34 27 37 44 136
136 167 156 17 11 30 21 30 23 0 12 -23 -2 -81 -49z"/>
<path d="M3951 1332 c-43 -67 -39 -76 5 -12 19 28 34 54 31 56 -2 3 -19 -17
-36 -44z"/>
<path d="M5080 1360 c0 -5 5 -10 11 -10 5 0 7 5 4 10 -3 6 -8 10 -11 10 -2 0
-4 -4 -4 -10z"/>
<path d="M4611 1340 c14 -31 19 -36 19 -24 0 6 -7 19 -16 30 -14 18 -14 18 -3
-6z"/>
<path d="M5176 1313 c-6 -14 -5 -15 5 -6 7 7 10 15 7 18 -3 3 -9 -2 -12 -12z"/>
<path d="M5119 1204 c-17 -36 -28 -68 -26 -70 2 -2 17 28 34 66 17 39 29 70
27 70 -3 0 -19 -30 -35 -66z"/>
<path d="M3370 1238 c-12 -22 -12 -22 6 -6 10 10 15 20 12 24 -4 3 -12 -5 -18
-18z"/>
<path d="M3470 1165 c-7 -9 -8 -15 -2 -15 5 0 12 7 16 15 3 8 4 15 2 15 -2 0
-9 -7 -16 -15z"/>
<path d="M3399 1133 c-5 -14 -8 -31 -5 -37 2 -6 5 -4 5 5 1 9 8 22 16 29 17
14 20 30 5 30 -6 0 -15 -12 -21 -27z"/>
<path d="M5191 1108 c-1 -16 4 -28 9 -28 12 0 12 8 0 35 -8 18 -9 17 -9 -7z"/>
<path d="M5243 1095 c6 -19 12 -33 14 -32 6 7 -9 67 -17 67 -5 0 -3 -16 3 -35z"/>
<path d="M3625 1080 c-3 -5 -1 -10 4 -10 6 0 11 5 11 10 0 6 -2 10 -4 10 -3 0
-8 -4 -11 -10z"/>
<path d="M5280 1080 c0 -5 5 -10 11 -10 5 0 7 5 4 10 -3 6 -8 10 -11 10 -2 0
-4 -4 -4 -10z"/>
<path d="M3566 1065 c-9 -26 -7 -32 5 -12 6 10 9 21 6 23 -2 3 -7 -2 -11 -11z"/>
<path d="M3527 1063 c-4 -3 -7 -11 -7 -17 0 -6 5 -5 12 2 6 6 9 14 7 17 -3 3
-9 2 -12 -2z"/>
<path d="M4816 1025 c-3 -8 0 -17 5 -21 6 -3 19 -20 30 -38 27 -44 24 -26 -5
28 -16 30 -26 40 -30 31z"/>
<path d="M3872 1000 c0 -14 2 -19 5 -12 2 6 2 18 0 25 -3 6 -5 1 -5 -13z"/>
<path d="M4000 1014 c1 -5 7 -20 14 -33 10 -18 14 -20 19 -8 3 8 -3 23 -14 33
-10 9 -19 13 -19 8z"/>
<path d="M4328 1013 c7 -3 16 -2 19 1 4 3 -2 6 -13 5 -11 0 -14 -3 -6 -6z"/>
<path d="M3590 994 c0 -3 7 -12 15 -20 16 -17 18 -14 9 10 -6 15 -24 23 -24
10z"/>
<path d="M3424 936 c-3 -9 -10 -13 -15 -10 -5 3 -6 -2 -3 -10 9 -22 21 -20 29
5 8 25 -2 39 -11 15z"/>
<path d="M3475 939 c-4 -6 -5 -12 -2 -15 2 -3 7 2 10 11 7 17 1 20 -8 4z"/>
<path d="M3832 905 c0 -16 2 -22 5 -12 2 9 2 23 0 30 -3 6 -5 -1 -5 -18z"/>
<path d="M3453 888 c2 -15 6 -30 10 -34 10 -10 8 17 -3 41 -8 17 -9 16 -7 -7z"/>
<path d="M5840 1630 c-9 -6 -10 -10 -3 -10 6 0 15 5 18 10 8 12 4 12 -15 0z"/>
<path d="M2530 1110 c0 -5 5 -10 11 -10 5 0 7 5 4 10 -3 6 -8 10 -11 10 -2 0
-4 -4 -4 -10z"/>
<path d="M4540 550 c-8 -5 -12 -12 -9 -15 4 -3 12 1 19 10 14 17 11 19 -10 5z"/>
<path d="M3879 3599 c-19 -16 -20 -18 -4 -10 34 17 51 31 39 31 -7 0 -22 -9
-35 -21z"/>
<path d="M3749 3472 c-14 -15 -28 -35 -32 -45 -3 -9 -11 -17 -16 -17 -6 0 -18
-14 -27 -31 -13 -26 -14 -33 -2 -40 7 -5 15 -8 18 -8 4 0 89 169 85 169 -1 0
-13 -12 -26 -28z"/>
<path d="M4100 3490 c0 -5 5 -10 11 -10 5 0 7 5 4 10 -3 6 -8 10 -11 10 -2 0
-4 -4 -4 -10z"/>
<path d="M4696 3444 c49 -31 125 -80 169 -109 44 -29 82 -51 84 -49 3 2 -6 16
-20 30 l-24 27 35 -18 c19 -10 86 -70 149 -134 117 -119 197 -217 264 -325 21
-33 54 -77 74 -96 41 -39 42 -42 -81 136 -49 71 -101 143 -116 159 -211 228
-268 285 -289 285 -4 0 -20 9 -33 20 -14 10 -28 17 -30 14 -3 -3 -23 7 -44 21
-56 38 -180 95 -206 95 -15 0 7 -18 68 -56z"/>
<path d="M3646 3313 c-11 -28 -6 -48 15 -62 21 -12 22 -12 16 19 -4 19 -3 29
3 25 6 -3 10 0 10 8 0 20 -37 29 -44 10z"/>
<path d="M5279 2935 c15 -32 40 -61 41 -48 0 7 -12 25 -26 40 -16 18 -22 21
-15 8z"/>
<path d="M5481 2683 c18 -20 20 -25 6 -20 -15 6 -14 2 4 -23 25 -33 45 -44 54
-29 4 5 11 6 17 3 6 -4 5 3 -2 16 -8 14 -17 19 -28 15 -9 -3 -13 -3 -9 1 8 8
-41 64 -57 64 -5 0 1 -12 15 -27z"/>
<path d="M5390 2669 c0 -3 7 -21 16 -39 9 -18 22 -53 29 -79 7 -25 14 -36 14
-25 1 27 -23 97 -44 127 -8 12 -15 19 -15 16z"/>
<path d="M5540 2575 c7 -9 15 -13 17 -11 7 7 -7 26 -19 26 -6 0 -6 -6 2 -15z"/>
<path d="M5590 2566 c0 -4 12 -19 26 -34 20 -21 24 -22 16 -6 -11 22 -42 51
-42 40z"/>
<path d="M5685 2530 c3 -5 8 -10 11 -10 2 0 4 5 4 10 0 6 -5 10 -11 10 -5 0
-7 -4 -4 -10z"/>
<path d="M2696 2511 c-4 -7 -5 -15 -2 -18 9 -9 19 4 14 18 -4 11 -6 11 -12 0z"/>
<path d="M4617 2470 c9 -19 16 -38 15 -42 -1 -5 3 -8 8 -8 6 0 10 -6 10 -12 0
-7 10 -24 21 -38 l20 -25 -7 35 c-3 19 -13 42 -20 50 -8 8 -25 29 -39 45 l-26
30 18 -35z"/>
<path d="M4697 2443 c14 -38 114 -145 130 -139 8 3 12 2 9 -3 -3 -4 3 -16 14
-26 23 -20 24 -17 10 19 -5 14 -15 26 -21 26 -7 0 -43 33 -81 73 -38 40 -65
62 -61 50z"/>
<path d="M4262 2330 c-6 -22 -12 -54 -12 -70 0 -17 -5 -41 -11 -52 -8 -14 -8
-23 0 -31 7 -7 12 -5 17 6 3 9 12 17 19 17 14 0 20 99 7 143 -7 27 -7 27 -20
-13z"/>
<path d="M3522 2282 c-10 -3 -8 -8 5 -19 10 -8 13 -12 6 -9 -14 8 -43 -3 -43
-15 0 -6 7 -6 18 -1 9 5 23 7 30 5 13 -5 14 3 4 28 -4 9 -13 14 -20 11z"/>
<path d="M2640 2221 c0 -11 4 -22 9 -25 4 -3 6 6 3 19 -5 30 -12 33 -12 6z"/>
<path d="M3824 2228 c-4 -7 -4 -10 1 -6 4 4 15 2 24 -5 14 -11 14 -10 2 6 -16
20 -18 21 -27 5z"/>
<path d="M3830 2206 c0 -2 8 -10 18 -17 15 -13 16 -12 3 4 -13 16 -21 21 -21
13z"/>
<path d="M2510 2129 c0 -5 5 -7 10 -4 6 3 10 8 10 11 0 2 -4 4 -10 4 -5 0 -10
-5 -10 -11z"/>
<path d="M3335 2090 c-3 -6 1 -7 9 -4 18 7 21 14 7 14 -6 0 -13 -4 -16 -10z"/>
<path d="M3665 2021 c-26 -11 -52 -41 -36 -41 6 0 11 -4 11 -9 0 -4 -11 -6
-25 -3 -14 2 -25 11 -25 18 0 8 -6 14 -14 14 -34 0 -197 -33 -258 -52 -78 -24
-84 -35 -73 -146 9 -99 24 -149 51 -167 22 -14 26 -13 60 10 21 14 40 22 43
18 7 -10 22 -13 81 -20 25 -2 59 -8 75 -13 34 -10 94 -8 113 3 7 5 12 3 12 -6
0 -20 51 -13 67 9 7 10 13 21 13 24 0 4 -30 5 -67 2 -105 -5 -125 -5 -132 4
-3 5 -13 9 -21 9 -19 0 -16 46 5 61 7 5 17 22 20 37 7 27 48 67 69 67 6 0 11
-16 12 -36 1 -52 39 -87 95 -86 71 1 105 51 86 125 -9 33 0 34 44 2 19 -13 44
-29 55 -34 12 -5 24 -17 28 -26 5 -15 7 -15 22 0 23 22 48 2 33 -27 -6 -11 -9
-22 -7 -24 3 -2 15 18 28 46 13 27 26 47 31 45 4 -3 5 5 1 17 -3 13 -1 19 5
15 7 -5 9 1 5 15 -3 12 -1 19 5 15 5 -3 9 4 7 16 -1 12 -3 27 -3 33 -2 26 -52
63 -106 79 -52 15 -99 16 -220 6 -5 -1 -23 1 -40 4 -16 2 -39 1 -50 -4z m255
-22 c43 -9 50 -14 50 -35 0 -18 -6 -24 -22 -25 -44 -2 -83 3 -103 14 -11 6
-35 13 -54 16 -19 4 -37 13 -39 21 -4 12 -3 13 10 2 16 -13 133 -20 145 -9 3
4 -2 7 -13 7 -21 0 -57 20 -37 20 7 0 35 -5 63 -11z m-106 -63 c16 -2 41 -17
55 -32 l26 -27 -25 14 c-17 10 -52 15 -105 14 -87 0 -149 -23 -207 -77 -26
-25 -58 -29 -58 -7 0 18 65 81 99 95 67 29 128 34 215 20z m-454 -42 c0 -12
-21 -44 -29 -44 -15 0 -22 33 -9 42 15 9 38 11 38 2z m395 -34 c9 -15 -14 -40
-31 -33 -22 8 -18 43 5 43 11 0 23 -5 26 -10z m-443 -42 c-10 -22 -11 -21 -11
12 -1 26 2 31 11 22 8 -8 8 -17 0 -34z m48 -118 c-13 -24 -47 -43 -61 -35 -13
8 7 34 36 45 32 13 36 11 25 -10z"/>
<path d="M4083 2013 c9 -2 17 -9 17 -14 0 -6 5 -7 10 -4 19 12 10 25 -17 24
-17 -1 -21 -3 -10 -6z"/>
<path d="M4040 1763 c-7 -21 -21 -53 -32 -72 -14 -25 -15 -31 -4 -22 16 13 60
120 52 128 -2 2 -9 -13 -16 -34z"/>
<path d="M5890 1781 c0 -5 5 -13 11 -17 8 -4 7 -9 -2 -15 -11 -7 -10 -9 4 -9
13 0 17 6 15 22 -3 21 -28 39 -28 19z"/>
<path d="M2503 1753 c9 -2 25 -2 35 0 9 3 1 5 -18 5 -19 0 -27 -2 -17 -5z"/>
<path d="M3977 1696 c-18 -27 -62 -44 -53 -20 5 13 1 15 -36 18 -7 1 -12 -6
-10 -14 3 -11 1 -12 -8 -3 -9 8 -17 6 -31 -8 -15 -15 -24 -17 -39 -9 -15 8
-21 6 -29 -9 -14 -25 -2 -35 15 -13 8 10 13 12 14 5 0 -16 65 -14 108 4 17 7
32 10 32 7 0 -10 40 28 51 48 14 26 4 22 -14 -6z"/>
<path d="M5945 1650 c3 -5 8 -10 11 -10 2 0 4 5 4 10 0 6 -5 10 -11 10 -5 0
-7 -4 -4 -10z"/>
<path d="M5947 1622 c1 -3 -4 -14 -14 -24 -9 -10 -11 -18 -6 -18 18 0 37 30
26 39 -5 5 -8 6 -6 3z"/>
<path d="M5885 1530 c3 -5 11 -10 16 -10 6 0 7 5 4 10 -3 6 -11 10 -16 10 -6
0 -7 -4 -4 -10z"/>
<path d="M5893 1378 c-15 -19 -25 -68 -14 -68 5 0 13 18 19 40 11 43 10 47 -5
28z"/>
<path d="M2231 1324 c0 -11 3 -14 6 -6 3 7 2 16 -1 19 -3 4 -6 -2 -5 -13z"/>
<path d="M5887 1143 c-16 -48 -16 -48 4 -24 16 20 27 71 15 71 -2 0 -11 -21
-19 -47z"/>
<path d="M5868 1083 c7 -3 16 -2 19 1 4 3 -2 6 -13 5 -11 0 -14 -3 -6 -6z"/>
<path d="M5840 950 c0 -25 -3 -56 -6 -70 -6 -24 -6 -25 9 -5 18 22 22 82 7
105 -7 11 -10 3 -10 -30z"/>
<path d="M2850 134 c0 -38 -3 -45 -16 -40 -12 5 -11 0 4 -22 25 -34 94 -72
133 -72 l29 0 -35 51 c-19 27 -37 65 -41 84 -4 22 -13 35 -27 39 -43 11 -47 8
-47 -40z"/>
<path d="M2940 143 c0 -55 68 -143 109 -142 23 0 24 1 6 8 -11 5 -27 17 -37
27 -25 29 -68 115 -62 125 3 5 0 9 -5 9 -6 0 -11 -12 -11 -27z"/>
<path d="M2971 154 c0 -11 3 -14 6 -6 3 7 2 16 -1 19 -3 4 -6 -2 -5 -13z"/>
<path d="M5740 115 c0 -27 -7 -61 -15 -75 -29 -51 -5 -58 25 -7 23 38 25 72 5
107 -14 24 -14 23 -15 -25z"/>
</g>
</svg>
