<svg width="16" height="16" viewBox="0 0 16 16" fill="none" xmlns="http://www.w3.org/2000/svg">
<g clip-path="url(#clip0_743_1006)">
<path d="M11.7854 12.309C12.0842 13.2327 11.024 13.9975 10.2417 13.4225L8.44516 12.1021C8.09281 11.8431 7.61307 11.8431 7.26072 12.1021L5.46416 13.4225C4.68187 13.9975 3.62167 13.2327 3.92048 12.309L4.61997 10.1466C4.75286 9.73579 4.60709 9.28609 4.25848 9.03137L2.43243 7.69713C1.65136 7.12643 2.05504 5.8897 3.02239 5.8897H5.2592C5.69376 5.8897 6.07859 5.60904 6.21137 5.19526L6.90076 3.04698C7.1979 2.12106 8.50798 2.12106 8.80511 3.04698L9.49451 5.19526C9.62729 5.60904 10.0121 5.8897 10.4467 5.8897H12.6832C13.6505 5.8897 14.0542 7.12636 13.2732 7.69709L11.4473 9.03137C11.0988 9.28609 10.953 9.73576 11.0859 10.1465L11.7854 12.309Z" fill="#7B61FF"/>
</g>
<defs>
<clipPath id="clip0_743_1006">
<rect width="15.7059" height="15.7059" fill="white"/>
</clipPath>
</defs>
</svg>
