<svg width="72" height="72" viewBox="0 0 72 72" fill="none" xmlns="http://www.w3.org/2000/svg">
<g filter="url(#filter0_d_2906_135)">
<rect x="20" y="20" width="32" height="32" rx="8" fill="#3A3A3A"/>
</g>
<g clip-path="url(#clip0_2906_135)">
<path d="M34.5 36C34.5 35.1713 35.1712 34.5 36 34.5C36.8287 34.5 37.5 35.1713 37.5 36C37.5 36.8288 36.8287 37.5 36 37.5C35.1712 37.5 34.5 36.8288 34.5 36ZM37.455 39.3098C36.9555 39.1463 36.3975 39 36 39C35.6055 39 35.052 39.144 34.5547 39.306C33.8715 39.5288 33.4642 40.2278 33.597 40.9343L34.239 43.8248C34.3912 44.511 35.0002 44.9993 35.703 44.9993H36.3375C37.0462 44.9993 37.6582 44.5028 37.8052 43.8098L38.415 40.9253C38.5402 40.2225 38.1337 39.531 37.455 39.3098ZM40.6545 38.3888C41.7 36.3488 41.322 33.8978 39.7125 32.2883C38.721 31.2968 37.4025 30.75 36 30.75C34.5975 30.75 33.279 31.2968 32.2875 32.2883C30.678 33.8978 30.3 36.3488 31.3455 38.3888C31.629 38.94 32.3055 39.1598 32.8605 38.8763C33.4132 38.5928 33.6315 37.9148 33.348 37.3613C32.7495 36.1943 32.9625 34.7948 33.879 33.8783C35.013 32.7443 36.9885 32.7443 38.1217 33.8783C39.0375 34.7948 39.2512 36.1943 38.6527 37.3613C38.3692 37.914 38.5882 38.5928 39.1402 38.8763C39.3045 38.9603 39.48 39 39.6525 39C40.0612 39 40.4557 38.7765 40.6545 38.3888ZM42.3637 29.6363C38.8552 26.1263 33.1447 26.1263 29.6362 29.6363C26.127 33.1448 26.127 38.8553 29.6362 42.3638C29.8852 42.6128 30.1515 42.849 30.4282 43.0673C30.6345 43.2308 30.8805 43.3095 31.125 43.3095C31.4572 43.3095 31.7865 43.1633 32.0085 42.882C32.3932 42.3945 32.31 41.6865 31.8225 41.3025C31.614 41.1375 31.4137 40.9598 31.227 40.773C28.5952 38.1405 28.5952 33.8588 31.227 31.2263C33.8587 28.5938 38.1412 28.5953 40.7737 31.2263C43.4055 33.8588 43.4055 38.1405 40.7745 40.7715C40.5847 40.9613 40.3837 41.1398 40.1775 41.3025C39.6907 41.688 39.6075 42.3953 39.993 42.8828C40.3785 43.3688 41.0865 43.4528 41.5732 43.0673C41.8462 42.8513 42.1117 42.6143 42.3637 42.3638C45.873 38.8545 45.873 33.1455 42.3637 29.6363Z" fill="white"/>
</g>
<defs>
<filter id="filter0_d_2906_135" x="0" y="0" width="72" height="72" filterUnits="userSpaceOnUse" color-interpolation-filters="sRGB">
<feFlood flood-opacity="0" result="BackgroundImageFix"/>
<feColorMatrix in="SourceAlpha" type="matrix" values="0 0 0 0 0 0 0 0 0 0 0 0 0 0 0 0 0 0 127 0" result="hardAlpha"/>
<feOffset/>
<feGaussianBlur stdDeviation="10"/>
<feComposite in2="hardAlpha" operator="out"/>
<feColorMatrix type="matrix" values="0 0 0 0 0 0 0 0 0 0 0 0 0 0 0 0 0 0 0.1 0"/>
<feBlend mode="normal" in2="BackgroundImageFix" result="effect1_dropShadow_2906_135"/>
<feBlend mode="normal" in="SourceGraphic" in2="effect1_dropShadow_2906_135" result="shape"/>
</filter>
<clipPath id="clip0_2906_135">
<rect width="18" height="18" fill="white" transform="translate(27 27)"/>
</clipPath>
</defs>
</svg>
