<svg width="905" height="114" viewBox="0 0 905 114" fill="none" xmlns="http://www.w3.org/2000/svg">
<g filter="url(#filter0_b_1177_2424)">
<rect width="905" height="114" fill="#1EAEA3" fill-opacity="0.5"/>
</g>
<g clip-path="url(#clip0_1177_2424)">
<path d="M636.125 50.6877C635.281 50.7009 634.455 50.9366 633.73 51.3712C633.006 51.8058 632.409 52.4237 632 53.1627C631.591 52.4237 630.994 51.8058 630.27 51.3712C629.546 50.9366 628.72 50.7009 627.875 50.6877C626.529 50.7462 625.26 51.3352 624.347 52.3259C623.434 53.3167 622.949 54.6286 623 55.9752C623 61.0565 631.217 66.9252 631.567 67.1742L632 67.481L632.434 67.1742C632.783 66.9267 641 61.0565 641 55.9752C641.051 54.6286 640.567 53.3167 639.653 52.3259C638.74 51.3352 637.472 50.7462 636.125 50.6877Z" fill="#E51D35"/>
</g>
<g clip-path="url(#clip1_1177_2424)">
<path d="M591 46C584.383 46 579 51.383 579 58C579 64.617 584.383 70 591 70C597.617 70 603 64.617 603 58C603 51.383 597.617 46 591 46ZM591 67C586.038 67 582 62.962 582 58C582 53.038 586.038 49 591 49C595.962 49 600 53.038 600 58C600 62.962 595.962 67 591 67ZM595 56V60C595 61.105 594.105 62 593 62H589C587.895 62 587 61.105 587 60V56C587 54.895 587.895 54 589 54H593C594.105 54 595 54.895 595 56Z" fill="#E51D35"/>
</g>
<g clip-path="url(#clip2_1177_2424)">
<path d="M750.25 67.9999H733.75C733.337 67.9999 733 67.6624 733 67.2499C733 66.8374 733.337 66.4999 733.75 66.4999H750.25C750.663 66.4999 751 66.8374 751 67.2499C751 67.6624 750.663 67.9999 750.25 67.9999ZM744.078 64.1449L748.84 59.0824C749.493 58.4299 749.68 57.4999 749.327 56.6524C748.975 55.8049 748.188 55.2724 747.265 55.2649H745.75V52.2424C745.757 50.9899 744.73 49.9924 743.485 49.9924H740.5C739.255 49.9924 738.25 50.9974 738.25 52.2424V55.2424H736.848C735.97 55.2424 735.122 55.6999 734.74 56.4874C734.312 57.3724 734.485 58.3699 735.145 59.0374L739.862 64.1374C740.44 64.7149 741.205 65.0074 741.97 65.0074C742.735 65.0074 743.493 64.7149 744.078 64.1374V64.1449Z" fill="#D7D7D7"/>
</g>
<g clip-path="url(#clip3_1177_2424)">
<path d="M822.875 62.75H821V56.375C821 55.9318 820.913 55.4929 820.743 55.0834C820.573 54.674 820.325 54.3019 820.011 53.9885C819.698 53.6751 819.326 53.4265 818.917 53.2569C818.507 53.0873 818.068 53 817.625 53H811.25V51.125C811.25 50.8266 811.131 50.5405 810.92 50.3295C810.71 50.1185 810.423 50 810.125 50C809.827 50 809.54 50.1185 809.33 50.3295C809.119 50.5405 809 50.8266 809 51.125V53H807.125C806.827 53 806.54 53.1185 806.33 53.3295C806.119 53.5405 806 53.8266 806 54.125C806 54.4234 806.119 54.7095 806.33 54.9205C806.54 55.1315 806.827 55.25 807.125 55.25H809V61.625C809 62.0682 809.087 62.5071 809.257 62.9166C809.427 63.326 809.675 63.6981 809.989 64.0115C810.621 64.6444 811.48 65 812.375 65H818.75V66.875C818.75 67.1734 818.869 67.4595 819.08 67.6705C819.29 67.8815 819.577 68 819.875 68C820.173 68 820.46 67.8815 820.67 67.6705C820.881 67.4595 821 67.1734 821 66.875V65H822.875C823.173 65 823.46 64.8815 823.67 64.6705C823.881 64.4595 824 64.1734 824 63.875C824 63.5766 823.881 63.2905 823.67 63.0795C823.46 62.8685 823.173 62.75 822.875 62.75ZM812.375 62.75C812.077 62.75 811.79 62.6315 811.58 62.4205C811.369 62.2095 811.25 61.9234 811.25 61.625V55.25H817.625C817.923 55.25 818.21 55.3685 818.42 55.5795C818.631 55.7905 818.75 56.0766 818.75 56.375V62.75H812.375Z" fill="#D7D7D7"/>
</g>
<g clip-path="url(#clip4_1177_2424)">
<path d="M891.6 13.2197C891.457 13.0922 891.27 13.0242 891.079 13.0299C890.887 13.0355 890.705 13.1143 890.57 13.25C890.434 13.3857 890.356 13.568 890.351 13.7596C890.346 13.9512 890.415 14.1375 890.542 14.2802C891.792 15.533 892.494 17.2304 892.494 18.9999C892.494 20.7695 891.792 22.4668 890.542 23.7197C890.466 23.7876 890.405 23.8703 890.362 23.9628C890.319 24.0552 890.295 24.1555 890.292 24.2575C890.289 24.3595 890.307 24.461 890.344 24.5558C890.382 24.6507 890.438 24.7369 890.51 24.8091C890.582 24.8814 890.668 24.9381 890.763 24.976C890.858 25.0139 890.959 25.032 891.061 25.0293C891.163 25.0266 891.264 25.0031 891.356 24.9602C891.449 24.9174 891.532 24.8561 891.6 24.7802C893.131 23.246 893.991 21.1672 893.991 18.9999C893.991 16.8326 893.131 14.7538 891.6 13.2197Z" fill="black"/>
<path d="M889.57 15.4697C889.501 15.3981 889.418 15.3409 889.326 15.3016C889.235 15.2623 889.136 15.2416 889.037 15.2408C888.937 15.2399 888.838 15.2589 888.746 15.2966C888.654 15.3343 888.57 15.39 888.5 15.4604C888.43 15.5308 888.374 15.6146 888.336 15.7067C888.298 15.7989 888.279 15.8977 888.28 15.9972C888.281 16.0968 888.302 16.1952 888.341 16.2867C888.38 16.3782 888.438 16.461 888.509 16.5302C889.163 17.1859 889.53 18.074 889.53 18.9999C889.53 19.9258 889.163 20.814 888.509 21.4697C888.438 21.5389 888.38 21.6216 888.341 21.7131C888.302 21.8046 888.281 21.9031 888.28 22.0026C888.279 22.1022 888.298 22.201 888.336 22.2932C888.374 22.3853 888.43 22.4691 888.5 22.5395C888.57 22.6099 888.654 22.6656 888.746 22.7033C888.838 22.741 888.937 22.76 889.037 22.7591C889.136 22.7583 889.235 22.7376 889.326 22.6983C889.418 22.659 889.501 22.6018 889.57 22.5302C890.504 21.5931 891.029 20.3235 891.029 18.9999C891.029 17.6763 890.504 16.4068 889.57 15.4697Z" fill="black"/>
<path d="M886.364 10.1552C884.085 10.583 882.058 11.8699 880.701 13.75H879.75C878.756 13.7512 877.803 14.1466 877.1 14.8496C876.397 15.5526 876.001 16.5058 876 17.5V20.5C876.001 21.4942 876.397 22.4473 877.1 23.1503C877.803 23.8533 878.756 24.2488 879.75 24.25H880.702C882.058 26.1301 884.086 27.4171 886.364 27.8447C886.472 27.8646 886.584 27.8605 886.69 27.8326C886.796 27.8048 886.895 27.7539 886.98 27.6835C887.064 27.6132 887.132 27.5251 887.179 27.4256C887.226 27.326 887.25 27.2174 887.25 27.1075V10.8925C887.25 10.7825 887.226 10.6739 887.179 10.5743C887.132 10.4748 887.064 10.3867 886.98 10.3164C886.895 10.246 886.796 10.1951 886.69 10.1673C886.584 10.1394 886.472 10.1353 886.364 10.1552Z" fill="black"/>
</g>
<g clip-path="url(#clip5_1177_2424)">
<path d="M696 58.9897C695.992 60.913 697.545 62.4783 699.469 62.486C700.354 62.4895 701.208 62.1553 701.856 61.5515L707.046 63.8947C707.01 64.0887 706.99 64.2854 706.987 64.4827C706.981 66.4193 708.546 67.9941 710.482 68.0002C712.419 68.0064 713.993 66.4415 714 64.5049C714.006 62.5683 712.441 60.9935 710.504 60.9874C709.347 60.9837 708.263 61.551 707.606 62.5036L702.731 60.3021C703.077 59.4658 703.078 58.5265 702.734 57.6893L707.603 55.4765C708.7 57.0622 710.874 57.4589 712.46 56.3625C714.046 55.266 714.442 53.0918 713.346 51.506C712.249 49.9203 710.075 49.5236 708.489 50.6201C707.545 51.273 706.982 52.3486 706.984 53.4967C706.987 53.6943 707.007 53.8913 707.044 54.0855L701.868 56.4376C700.465 55.1207 698.261 55.1901 696.944 56.5924C696.335 57.2415 695.997 58.0993 696 58.9897Z" fill="#D7D7D7"/>
</g>
<g clip-path="url(#clip6_1177_2424)">
<path d="M675.875 61.625H667.963C667.396 61.625 666.865 61.4054 666.461 61.0017L665.455 60.0029C665.321 59.8683 665.25 59.6912 665.25 59.5C665.25 59.3088 665.328 59.1317 665.455 58.9971L666.461 57.9983C666.865 57.5946 667.396 57.375 667.963 57.375H675.875C677.044 57.375 678 58.3313 678 59.5C678 60.6687 677.044 61.625 675.875 61.625ZM673.75 55.25H667.963C667.396 55.25 666.865 55.0304 666.461 54.6267L665.455 53.6279C665.321 53.4933 665.25 53.3163 665.25 53.125C665.25 52.9338 665.328 52.7567 665.455 52.6221L666.461 51.6233C666.865 51.2196 667.396 51 667.963 51H673.75C674.919 51 675.875 51.9563 675.875 53.125C675.875 54.2937 674.919 55.25 673.75 55.25ZM672.333 68H667.963C667.396 68 666.865 67.7804 666.461 67.3767L665.455 66.3779C665.321 66.2433 665.25 66.0662 665.25 65.875C665.25 65.6838 665.328 65.5067 665.455 65.3721L666.461 64.3733C666.865 63.9696 667.396 63.75 667.963 63.75H672.333C673.502 63.75 674.458 64.7063 674.458 65.875C674.458 67.0438 673.502 68 672.333 68ZM662.417 64.4583C661.637 64.4583 661 65.0958 661 65.875C661 66.6542 661.637 67.2917 662.417 67.2917C663.196 67.2917 663.833 66.6542 663.833 65.875C663.833 65.0958 663.196 64.4583 662.417 64.4583ZM662.417 58.0833C661.637 58.0833 661 58.7208 661 59.5C661 60.2792 661.637 60.9167 662.417 60.9167C663.196 60.9167 663.833 60.2792 663.833 59.5C663.833 58.7208 663.196 58.0833 662.417 58.0833ZM662.417 51.7083C661.637 51.7083 661 52.3458 661 53.125C661 53.9042 661.637 54.5417 662.417 54.5417C663.196 54.5417 663.833 53.9042 663.833 53.125C663.833 52.3458 663.196 51.7083 662.417 51.7083Z" fill="#D7D7D7"/>
</g>
<path d="M16.617 62.921V64H10.637V63.558C10.637 63.2373 10.6847 62.934 10.78 62.648C10.884 62.3533 10.9967 62.1063 11.118 61.907C11.2393 61.7077 11.43 61.4867 11.69 61.244C11.95 60.9927 12.1537 60.8107 12.301 60.698C12.4483 60.5767 12.6953 60.3947 13.042 60.152C13.3887 59.9007 13.6183 59.736 13.731 59.658C14.3463 59.2073 14.771 58.8303 15.005 58.527C15.2477 58.215 15.369 57.8077 15.369 57.305C15.369 56.8197 15.213 56.434 14.901 56.148C14.589 55.8533 14.1817 55.706 13.679 55.706C13.1503 55.706 12.6997 55.8663 12.327 56.187C11.9543 56.5077 11.768 56.954 11.768 57.526H10.624C10.624 56.6593 10.91 55.9573 11.482 55.42C12.0627 54.8827 12.7907 54.614 13.666 54.614C14.4807 54.614 15.1567 54.848 15.694 55.316C16.24 55.784 16.513 56.4513 16.513 57.318C16.513 57.9767 16.3527 58.54 16.032 59.008C15.7113 59.4673 15.161 59.9787 14.381 60.542C14.2337 60.646 14.0257 60.7933 13.757 60.984C13.4883 61.166 13.2803 61.3133 13.133 61.426C12.9857 61.5387 12.821 61.6773 12.639 61.842C12.4657 61.998 12.327 62.167 12.223 62.349C12.1277 62.5223 12.0583 62.713 12.015 62.921H16.617ZM19.706 59.008C19.524 59.1987 19.2987 59.294 19.03 59.294C18.7614 59.294 18.5317 59.1987 18.341 59.008C18.159 58.8173 18.068 58.5877 18.068 58.319C18.068 58.059 18.1634 57.8337 18.354 57.643C18.5447 57.4437 18.77 57.344 19.03 57.344C19.29 57.344 19.5154 57.4437 19.706 57.643C19.8967 57.8337 19.992 58.059 19.992 58.319C19.992 58.5877 19.8967 58.8173 19.706 59.008ZM19.706 63.818C19.524 64.0087 19.2987 64.104 19.03 64.104C18.7614 64.104 18.5317 64.0087 18.341 63.818C18.159 63.6273 18.068 63.3977 18.068 63.129C18.068 62.869 18.1634 62.6437 18.354 62.453C18.5447 62.2537 18.77 62.154 19.03 62.154C19.29 62.154 19.5154 62.2537 19.706 62.453C19.8967 62.6437 19.992 62.869 19.992 63.129C19.992 63.3977 19.8967 63.6273 19.706 63.818ZM24.8594 64.13C23.8974 64.13 23.1131 63.8093 22.5064 63.168C21.8997 62.518 21.5964 61.6817 21.5964 60.659V58.085C21.5964 57.0623 21.8997 56.2303 22.5064 55.589C23.1217 54.939 23.9061 54.614 24.8594 54.614C25.8127 54.614 26.5971 54.939 27.2124 55.589C27.8277 56.239 28.1354 57.071 28.1354 58.085V60.659C28.1354 61.6817 27.8277 62.518 27.2124 63.168C26.5971 63.8093 25.8127 64.13 24.8594 64.13ZM24.8594 63.038C25.5007 63.038 26.0207 62.8257 26.4194 62.401C26.8181 61.9763 27.0174 61.3957 27.0174 60.659V58.085C27.0174 57.3483 26.8181 56.7677 26.4194 56.343C26.0207 55.9183 25.5007 55.706 24.8594 55.706C24.2267 55.706 23.7111 55.9183 23.3124 56.343C22.9137 56.7677 22.7144 57.3483 22.7144 58.085V60.659C22.7144 61.3957 22.9137 61.9763 23.3124 62.401C23.7111 62.8257 24.2267 63.038 24.8594 63.038ZM30.801 64V55.875H29.02L29.93 54.77H31.919V64H30.801Z" fill="white"/>
<path d="M455.041 64H453.793L458.096 55.862H453.377V54.77H459.435V55.706L455.041 64ZM462.071 59.008C461.889 59.1987 461.664 59.294 461.395 59.294C461.127 59.294 460.897 59.1987 460.706 59.008C460.524 58.8173 460.433 58.5877 460.433 58.319C460.433 58.059 460.529 57.8337 460.719 57.643C460.91 57.4437 461.135 57.344 461.395 57.344C461.655 57.344 461.881 57.4437 462.071 57.643C462.262 57.8337 462.357 58.059 462.357 58.319C462.357 58.5877 462.262 58.8173 462.071 59.008ZM462.071 63.818C461.889 64.0087 461.664 64.104 461.395 64.104C461.127 64.104 460.897 64.0087 460.706 63.818C460.524 63.6273 460.433 63.3977 460.433 63.129C460.433 62.869 460.529 62.6437 460.719 62.453C460.91 62.2537 461.135 62.154 461.395 62.154C461.655 62.154 461.881 62.2537 462.071 62.453C462.262 62.6437 462.357 62.869 462.357 63.129C462.357 63.3977 462.262 63.6273 462.071 63.818ZM468.317 64V61.491H463.403V60.594L468.46 54.77H469.435V60.438H470.709V61.491H469.435V64H468.317ZM464.859 60.438H468.317V56.46L464.859 60.438ZM474.767 64.13C473.935 64.13 473.216 63.87 472.609 63.35C472.002 62.83 471.69 62.2147 471.673 61.504H472.817C472.921 61.9547 473.151 62.323 473.506 62.609C473.861 62.895 474.282 63.038 474.767 63.038C475.33 63.038 475.803 62.8473 476.184 62.466C476.565 62.0847 476.756 61.6167 476.756 61.062C476.756 60.4987 476.574 60.0263 476.21 59.645C475.846 59.2637 475.382 59.073 474.819 59.073C474.048 59.073 473.467 59.385 473.077 60.009L472.011 59.697L472.96 54.77H477.276V55.862H473.857L473.35 58.501C473.801 58.1803 474.338 58.02 474.962 58.02C475.82 58.02 476.522 58.3233 477.068 58.93C477.623 59.528 477.9 60.2863 477.9 61.205C477.9 62.0197 477.601 62.713 477.003 63.285C476.405 63.8483 475.66 64.13 474.767 64.13Z" fill="white"/>
<path d="M43 59.5H443" stroke="white" stroke-width="5" stroke-linecap="round"/>
<path d="M43 59.5H166" stroke="#093F62" stroke-width="5" stroke-linecap="round"/>
<path d="M886 98V36" stroke="black" stroke-width="5" stroke-linecap="round"/>
<g filter="url(#filter1_d_1177_2424)">
<circle cx="886" cy="96" r="6" fill="#CACACA"/>
</g>
<defs>
<filter id="filter0_b_1177_2424" x="-20" y="-20" width="945" height="154" filterUnits="userSpaceOnUse" color-interpolation-filters="sRGB">
<feFlood flood-opacity="0" result="BackgroundImageFix"/>
<feGaussianBlur in="BackgroundImageFix" stdDeviation="10"/>
<feComposite in2="SourceAlpha" operator="in" result="effect1_backgroundBlur_1177_2424"/>
<feBlend mode="normal" in="SourceGraphic" in2="effect1_backgroundBlur_1177_2424" result="shape"/>
</filter>
<filter id="filter1_d_1177_2424" x="876" y="90" width="20" height="20" filterUnits="userSpaceOnUse" color-interpolation-filters="sRGB">
<feFlood flood-opacity="0" result="BackgroundImageFix"/>
<feColorMatrix in="SourceAlpha" type="matrix" values="0 0 0 0 0 0 0 0 0 0 0 0 0 0 0 0 0 0 127 0" result="hardAlpha"/>
<feOffset dy="4"/>
<feGaussianBlur stdDeviation="2"/>
<feComposite in2="hardAlpha" operator="out"/>
<feColorMatrix type="matrix" values="0 0 0 0 0 0 0 0 0 0 0 0 0 0 0 0 0 0 0.25 0"/>
<feBlend mode="normal" in2="BackgroundImageFix" result="effect1_dropShadow_1177_2424"/>
<feBlend mode="normal" in="SourceGraphic" in2="effect1_dropShadow_1177_2424" result="shape"/>
</filter>
<clipPath id="clip0_1177_2424">
<rect width="18" height="18" fill="white" transform="translate(623 50)"/>
</clipPath>
<clipPath id="clip1_1177_2424">
<rect width="24" height="24" fill="white" transform="translate(579 46)"/>
</clipPath>
<clipPath id="clip2_1177_2424">
<rect width="18" height="18" fill="white" transform="translate(733 50)"/>
</clipPath>
<clipPath id="clip3_1177_2424">
<rect width="18" height="18" fill="white" transform="translate(806 50)"/>
</clipPath>
<clipPath id="clip4_1177_2424">
<rect width="18" height="18" fill="white" transform="translate(876 10)"/>
</clipPath>
<clipPath id="clip5_1177_2424">
<rect width="18" height="18" fill="white" transform="translate(696 50)"/>
</clipPath>
<clipPath id="clip6_1177_2424">
<rect width="17" height="17" fill="white" transform="translate(661 51)"/>
</clipPath>
</defs>
</svg>
