<svg width="18" height="18" viewBox="0 0 18 18" fill="none" xmlns="http://www.w3.org/2000/svg">
<g clip-path="url(#clip0_736_722)">
<path d="M13.125 0.687744C12.2805 0.70088 11.4544 0.936634 10.7301 1.3712C10.0058 1.80576 9.40905 2.42375 9.00003 3.16274C8.59101 2.42375 7.99423 1.80576 7.26996 1.3712C6.54569 0.936634 5.71957 0.70088 4.87503 0.687744C3.52874 0.746237 2.26031 1.33518 1.34687 2.32592C0.433424 3.31665 -0.0507831 4.62864 2.97532e-05 5.97524C2.97532e-05 11.0565 8.21703 16.9252 8.56653 17.1742L9.00003 17.481L9.43353 17.1742C9.78303 16.9267 18 11.0565 18 5.97524C18.0508 4.62864 17.5666 3.31665 16.6532 2.32592C15.7398 1.33518 14.4713 0.746237 13.125 0.687744Z" fill="#919191"/>
</g>
<defs>
<clipPath id="clip0_736_722">
<rect width="18" height="18" fill="white"/>
</clipPath>
</defs>
</svg>
