<svg width="30" height="30" viewBox="0 0 30 30" fill="none" xmlns="http://www.w3.org/2000/svg">
<path d="M20.625 13.125H16.875V9.375C16.875 8.87772 16.6775 8.40081 16.3258 8.04917C15.9742 7.69754 15.4973 7.5 15 7.5C14.5027 7.5 14.0258 7.69754 13.6742 8.04917C13.3225 8.40081 13.125 8.87772 13.125 9.375V13.125H9.375C8.87772 13.125 8.40081 13.3225 8.04917 13.6742C7.69754 14.0258 7.5 14.5027 7.5 15C7.5 15.4973 7.69754 15.9742 8.04917 16.3258C8.40081 16.6775 8.87772 16.875 9.375 16.875H13.125V20.625C13.125 21.1223 13.3225 21.5992 13.6742 21.9508C14.0258 22.3025 14.5027 22.5 15 22.5C15.4973 22.5 15.9742 22.3025 16.3258 21.9508C16.6775 21.5992 16.875 21.1223 16.875 20.625V16.875H20.625C21.1223 16.875 21.5992 16.6775 21.9508 16.3258C22.3025 15.9742 22.5 15.4973 22.5 15C22.5 14.5027 22.3025 14.0258 21.9508 13.6742C21.5992 13.3225 21.1223 13.125 20.625 13.125Z" fill="#919191"/>
</svg>
