<svg width="69" height="72" viewBox="0 0 69 72" fill="none" xmlns="http://www.w3.org/2000/svg">
<g filter="url(#filter0_d_755_683)">
<rect x="17" y="20" width="32" height="32" rx="8" fill="#3A3A3A"/>
</g>
<path d="M39.75 36.318V35.25C39.75 33.4598 39.0389 31.7429 37.773 30.477C36.5071 29.2112 34.7902 28.5 33 28.5C31.2098 28.5 29.4929 29.2112 28.2271 30.477C26.9612 31.7429 26.25 33.4598 26.25 35.25V36.318C25.4634 36.6644 24.8196 37.2705 24.4265 38.0348C24.0334 38.7991 23.9147 39.6753 24.0904 40.5167C24.2662 41.358 24.7256 42.1135 25.3918 42.6566C26.058 43.1997 26.8905 43.4974 27.75 43.5C28.1478 43.5 28.5294 43.342 28.8107 43.0607C29.092 42.7794 29.25 42.3978 29.25 42V37.5C29.25 37.1022 29.092 36.7206 28.8107 36.4393C28.5294 36.158 28.1478 36 27.75 36V35.25C27.75 33.8576 28.3031 32.5223 29.2877 31.5377C30.2723 30.5531 31.6076 30 33 30C34.3924 30 35.7278 30.5531 36.7123 31.5377C37.6969 32.5223 38.25 33.8576 38.25 35.25V36C37.8522 36 37.4707 36.158 37.1894 36.4393C36.9081 36.7206 36.75 37.1022 36.75 37.5V42C36.75 42.3978 36.9081 42.7794 37.1894 43.0607C37.4707 43.342 37.8522 43.5 38.25 43.5C39.1095 43.4974 39.9421 43.1997 40.6083 42.6566C41.2745 42.1135 41.7339 41.358 41.9096 40.5167C42.0853 39.6753 41.9667 38.7991 41.5736 38.0348C41.1804 37.2705 40.5367 36.6644 39.75 36.318Z" fill="#E8E8E8"/>
<defs>
<filter id="filter0_d_755_683" x="-3" y="0" width="72" height="72" filterUnits="userSpaceOnUse" color-interpolation-filters="sRGB">
<feFlood flood-opacity="0" result="BackgroundImageFix"/>
<feColorMatrix in="SourceAlpha" type="matrix" values="0 0 0 0 0 0 0 0 0 0 0 0 0 0 0 0 0 0 127 0" result="hardAlpha"/>
<feOffset/>
<feGaussianBlur stdDeviation="10"/>
<feComposite in2="hardAlpha" operator="out"/>
<feColorMatrix type="matrix" values="0 0 0 0 0 0 0 0 0 0 0 0 0 0 0 0 0 0 0.1 0"/>
<feBlend mode="normal" in2="BackgroundImageFix" result="effect1_dropShadow_755_683"/>
<feBlend mode="normal" in="SourceGraphic" in2="effect1_dropShadow_755_683" result="shape"/>
</filter>
</defs>
</svg>
