<svg width="69" height="72" viewBox="0 0 69 72" fill="none" xmlns="http://www.w3.org/2000/svg">
<g filter="url(#filter0_d_755_676)">
<rect x="17" y="20" width="32" height="32" rx="8" fill="#3A3A3A"/>
</g>
<g clip-path="url(#clip0_755_676)">
<path d="M30.7494 36C33.2345 36 35.249 33.9855 35.249 31.5004C35.249 29.0154 33.2345 27.0008 30.7494 27.0008C28.2644 27.0008 26.2498 29.0154 26.2498 31.5004C26.2498 33.9855 28.2644 36 30.7494 36Z" fill="#E8E8E8"/>
<path d="M30.7494 37.4998C27.0237 37.5044 24.0045 40.5235 24 44.2492C24 44.6634 24.3357 44.9991 24.7499 44.9991H36.7488C37.163 44.9991 37.4987 44.6634 37.4987 44.2492C37.4942 40.5235 34.4751 37.5044 30.7494 37.4998Z" fill="#E8E8E8"/>
<path d="M40.4985 32.9065C39.6296 32.9498 38.9591 33.6873 38.9986 34.5564C39.0381 33.6873 38.3676 32.9498 37.4987 32.9065C36.6298 32.9498 35.9594 33.6873 35.9988 34.5564C35.9988 35.8538 37.6907 37.3739 38.5336 38.0503C38.8054 38.2679 39.1918 38.2679 39.4635 38.0503C40.3065 37.3754 41.9983 35.8538 41.9983 34.5564C42.0378 33.6873 41.3674 32.9498 40.4985 32.9065Z" fill="#E8E8E8"/>
</g>
<defs>
<filter id="filter0_d_755_676" x="-3" y="0" width="72" height="72" filterUnits="userSpaceOnUse" color-interpolation-filters="sRGB">
<feFlood flood-opacity="0" result="BackgroundImageFix"/>
<feColorMatrix in="SourceAlpha" type="matrix" values="0 0 0 0 0 0 0 0 0 0 0 0 0 0 0 0 0 0 127 0" result="hardAlpha"/>
<feOffset/>
<feGaussianBlur stdDeviation="10"/>
<feComposite in2="hardAlpha" operator="out"/>
<feColorMatrix type="matrix" values="0 0 0 0 0 0 0 0 0 0 0 0 0 0 0 0 0 0 0.1 0"/>
<feBlend mode="normal" in2="BackgroundImageFix" result="effect1_dropShadow_755_676"/>
<feBlend mode="normal" in="SourceGraphic" in2="effect1_dropShadow_755_676" result="shape"/>
</filter>
<clipPath id="clip0_755_676">
<rect width="18" height="18" fill="white" transform="translate(24 27)"/>
</clipPath>
</defs>
</svg>
