<svg width="69" height="72" viewBox="0 0 69 72" fill="none" xmlns="http://www.w3.org/2000/svg">
<g filter="url(#filter0_d_736_645)">
<rect x="17" y="20" width="32" height="32" rx="8" fill="#3A3A3A"/>
</g>
<g clip-path="url(#clip0_736_645)">
<path d="M27.7365 45L26.745 44.25L28.5405 38.8043L24 35.7983V34.5H29.9595L31.581 29.25H32.919L34.5405 34.5H40.5V35.793L35.958 38.8822L37.7865 44.2635L36.7432 44.9842L32.25 41.511L27.7365 45ZM37.3702 32.9445L37.0095 32.673L37.6613 30.6353L36 29.7113V29.25H38.175L38.7638 27H39.249L39.837 29.25H42V29.7083L40.35 30.663L41.013 32.6775L40.638 32.9392L39.0075 31.6785L37.3702 32.9445Z" fill="#E8E8E8"/>
</g>
<defs>
<filter id="filter0_d_736_645" x="-3" y="0" width="72" height="72" filterUnits="userSpaceOnUse" color-interpolation-filters="sRGB">
<feFlood flood-opacity="0" result="BackgroundImageFix"/>
<feColorMatrix in="SourceAlpha" type="matrix" values="0 0 0 0 0 0 0 0 0 0 0 0 0 0 0 0 0 0 127 0" result="hardAlpha"/>
<feOffset/>
<feGaussianBlur stdDeviation="10"/>
<feComposite in2="hardAlpha" operator="out"/>
<feColorMatrix type="matrix" values="0 0 0 0 0 0 0 0 0 0 0 0 0 0 0 0 0 0 0.1 0"/>
<feBlend mode="normal" in2="BackgroundImageFix" result="effect1_dropShadow_736_645"/>
<feBlend mode="normal" in="SourceGraphic" in2="effect1_dropShadow_736_645" result="shape"/>
</filter>
<clipPath id="clip0_736_645">
<rect width="18" height="18" fill="white" transform="translate(24 27)"/>
</clipPath>
</defs>
</svg>
