<svg width="69" height="72" viewBox="0 0 69 72" fill="none" xmlns="http://www.w3.org/2000/svg">
<g filter="url(#filter0_d_755_669)">
<rect x="17" y="20" width="32" height="32" rx="8" fill="#3A3A3A"/>
</g>
<g clip-path="url(#clip0_755_669)">
<path d="M41.25 27H40.5C38.4323 27 36.75 28.6823 36.75 30.75V37.6957C36.036 37.1055 35.121 36.75 34.125 36.75C31.851 36.75 30 38.6003 30 40.875C30 43.1497 31.851 45 34.125 45C36.399 45 38.25 43.1497 38.25 40.875V30.75C38.25 29.5095 39.2595 28.5 40.5 28.5H41.25C41.6647 28.5 42 28.164 42 27.75C42 27.336 41.6647 27 41.25 27ZM24 27.75C24 27.336 24.3353 27 24.75 27H33C33.4148 27 33.75 27.336 33.75 27.75C33.75 28.164 33.4148 28.5 33 28.5H24.75C24.3353 28.5 24 28.164 24 27.75ZM24 32.25C24 31.836 24.3353 31.5 24.75 31.5H33C33.4148 31.5 33.75 31.836 33.75 32.25C33.75 32.664 33.4148 33 33 33H24.75C24.3353 33 24 32.664 24 32.25ZM30 36.75C30 37.164 29.6648 37.5 29.25 37.5H24.75C24.3353 37.5 24 37.164 24 36.75C24 36.336 24.3353 36 24.75 36H29.25C29.6648 36 30 36.336 30 36.75Z" fill="#E8E8E8"/>
</g>
<defs>
<filter id="filter0_d_755_669" x="-3" y="0" width="72" height="72" filterUnits="userSpaceOnUse" color-interpolation-filters="sRGB">
<feFlood flood-opacity="0" result="BackgroundImageFix"/>
<feColorMatrix in="SourceAlpha" type="matrix" values="0 0 0 0 0 0 0 0 0 0 0 0 0 0 0 0 0 0 127 0" result="hardAlpha"/>
<feOffset/>
<feGaussianBlur stdDeviation="10"/>
<feComposite in2="hardAlpha" operator="out"/>
<feColorMatrix type="matrix" values="0 0 0 0 0 0 0 0 0 0 0 0 0 0 0 0 0 0 0.1 0"/>
<feBlend mode="normal" in2="BackgroundImageFix" result="effect1_dropShadow_755_669"/>
<feBlend mode="normal" in="SourceGraphic" in2="effect1_dropShadow_755_669" result="shape"/>
</filter>
<clipPath id="clip0_755_669">
<rect width="18" height="18" fill="white" transform="translate(24 27)"/>
</clipPath>
</defs>
</svg>
