<svg width="17" height="17" viewBox="0 0 17 17" fill="none" xmlns="http://www.w3.org/2000/svg">
<g clip-path="url(#clip0_736_758)">
<path d="M14.875 10.625H6.96292C6.39625 10.625 5.865 10.4054 5.46125 10.0017L4.45542 9.00292C4.32083 8.86833 4.25 8.69125 4.25 8.5C4.25 8.30875 4.32792 8.13167 4.45542 7.99708L5.46125 6.99833C5.865 6.59458 6.39625 6.375 6.96292 6.375H14.875C16.0438 6.375 17 7.33125 17 8.5C17 9.66875 16.0438 10.625 14.875 10.625ZM12.75 4.25H6.96292C6.39625 4.25 5.865 4.03042 5.46125 3.62667L4.45542 2.62792C4.32083 2.49333 4.25 2.31625 4.25 2.125C4.25 1.93375 4.32792 1.75667 4.45542 1.62208L5.46125 0.623333C5.865 0.219583 6.39625 0 6.96292 0H12.75C13.9187 0 14.875 0.95625 14.875 2.125C14.875 3.29375 13.9187 4.25 12.75 4.25ZM11.3333 17H6.96292C6.39625 17 5.865 16.7804 5.46125 16.3767L4.45542 15.3779C4.32083 15.2433 4.25 15.0662 4.25 14.875C4.25 14.6838 4.32792 14.5067 4.45542 14.3721L5.46125 13.3733C5.865 12.9696 6.39625 12.75 6.96292 12.75H11.3333C12.5021 12.75 13.4583 13.7063 13.4583 14.875C13.4583 16.0438 12.5021 17 11.3333 17ZM1.41667 13.4583C0.6375 13.4583 0 14.0958 0 14.875C0 15.6542 0.6375 16.2917 1.41667 16.2917C2.19583 16.2917 2.83333 15.6542 2.83333 14.875C2.83333 14.0958 2.19583 13.4583 1.41667 13.4583ZM1.41667 7.08333C0.6375 7.08333 0 7.72083 0 8.5C0 9.27917 0.6375 9.91667 1.41667 9.91667C2.19583 9.91667 2.83333 9.27917 2.83333 8.5C2.83333 7.72083 2.19583 7.08333 1.41667 7.08333ZM1.41667 0.708333C0.6375 0.708333 0 1.34583 0 2.125C0 2.90417 0.6375 3.54167 1.41667 3.54167C2.19583 3.54167 2.83333 2.90417 2.83333 2.125C2.83333 1.34583 2.19583 0.708333 1.41667 0.708333Z" fill="#919191"/>
</g>
<defs>
<clipPath id="clip0_736_758">
<rect width="17" height="17" fill="white"/>
</clipPath>
</defs>
</svg>
