<svg width="16" height="16" viewBox="0 0 16 16" fill="none" xmlns="http://www.w3.org/2000/svg">
<g clip-path="url(#clip0_736_783)">
<path d="M15.316 2.68344C15.0927 2.4601 14.8313 2.28877 14.5473 2.17344C14.3713 1.55544 14.004 1.00677 13.4733 0.606105C12.7147 0.033438 11.7547 -0.145229 10.8427 0.116105L8.89933 0.671438C8.566 0.766771 8.262 0.926105 8 1.13344C7.738 0.926105 7.43467 0.766771 7.10067 0.671438L5.15733 0.116771C4.24267 -0.143895 3.28467 0.0341047 2.52667 0.606771C1.996 1.00677 1.62867 1.5561 1.45267 2.1741C1.16867 2.28944 0.907333 2.46077 0.684 2.6841C0.242667 3.12477 0 3.71077 0 4.3341V11.1761C0 12.8041 1.09333 14.2541 2.65933 14.7021L6.44333 15.7834C7.462 16.0748 8.53867 16.0748 9.55667 15.7834L13.3407 14.7021C14.9067 14.2548 16 12.8048 16 11.1761V4.33344C16 3.7101 15.7573 3.1241 15.316 2.68344ZM9 3.1901C9 2.91544 9.18467 2.67077 9.44867 2.59477L11.392 2.03944C11.6927 1.95277 12.016 2.01077 12.2687 2.20277C12.5213 2.39344 12.6667 2.68477 12.6667 3.00144V11.0594C12.6667 11.5034 12.3687 11.8988 11.9413 12.0208L9 12.8614V3.1901ZM3.33333 3.00144C3.33333 2.68477 3.478 2.39344 3.73133 2.20277C3.98467 2.01144 4.30733 1.95344 4.608 2.03944L6.55133 2.59477C6.81533 2.6701 7 2.91477 7 3.1901V12.8608L4.058 12.0201C3.63133 11.8981 3.33333 11.5028 3.33333 11.0588V3.00144Z" fill="white"/>
</g>
<defs>
<clipPath id="clip0_736_783">
<rect width="16" height="16" fill="white"/>
</clipPath>
</defs>
</svg>
