<svg width="18" height="18" viewBox="0 0 18 18" fill="none" xmlns="http://www.w3.org/2000/svg">
<g clip-path="url(#clip0_736_804)">
<path d="M9 0C4.03725 0 0 4.03725 0 9C0 13.9628 4.03725 18 9 18C13.9628 18 18 13.9628 18 9C18 4.03725 13.9628 0 9 0ZM9 15.75C5.2785 15.75 2.25 12.7215 2.25 9C2.25 5.2785 5.2785 2.25 9 2.25C12.7215 2.25 15.75 5.2785 15.75 9C15.75 12.7215 12.7215 15.75 9 15.75ZM13.5 9C13.5 11.226 11.8755 13.0793 9.75 13.437V14.25C9.75 14.664 9.414 15 9 15C8.586 15 8.25 14.664 8.25 14.25V13.437C6.1245 13.0793 4.5 11.226 4.5 9C4.5 8.586 4.836 8.25 5.25 8.25C5.664 8.25 6 8.586 6 9C6 10.6545 7.3455 12 9 12C10.6545 12 12 10.6545 12 9C12 8.586 12.336 8.25 12.75 8.25C13.164 8.25 13.5 8.586 13.5 9ZM7.5 8.91975V5.33025C7.5 4.58325 8.01075 3.89025 8.748 3.77025C9.68775 3.61725 10.5 4.33875 10.5 5.25H9.75C9.336 5.25 9 5.586 9 6C9 6.414 9.336 6.75 9.75 6.75H10.5V7.5H9.75C9.336 7.5 9 7.836 9 8.25C9 8.664 9.336 9 9.75 9H10.5C10.5 9.91125 9.68775 10.632 8.748 10.4797C8.01075 10.3597 7.5 9.6675 7.5 8.91975Z" fill="white"/>
</g>
<defs>
<clipPath id="clip0_736_804">
<rect width="18" height="18" fill="white"/>
</clipPath>
</defs>
</svg>
