<svg width="16" height="16" viewBox="0 0 16 16" fill="none" xmlns="http://www.w3.org/2000/svg">
<g clip-path="url(#clip0_736_793)">
<path d="M14 10H2C0.9 10 0 9.1 0 8C0 6.9 0.9 6 2 6H14C15.1 6 16 6.9 16 8C16 9.1 15.1 10 14 10ZM10 4H2C0.9 4 0 3.1 0 2C0 0.9 0.9 0 2 0H10C11.1 0 12 0.9 12 2C12 3.1 11.1 4 10 4ZM6 16H2C0.9 16 0 15.1 0 14C0 12.9 0.9 12 2 12H6C7.1 12 8 12.9 8 14C8 15.1 7.1 16 6 16Z" fill="white"/>
</g>
<defs>
<clipPath id="clip0_736_793">
<rect width="32" height="32" fill="white" />
</clipPath>
</defs>
</svg>
