<svg width="24" height="24" viewBox="0 0 24 24" fill="none" xmlns="http://www.w3.org/2000/svg">
<g clip-path="url(#clip0_1386_1587)">
<path d="M9.34024 10.793C8.38875 9.5917 7.91762 8.07967 8.01834 6.55051C8.11905 5.02134 8.78441 3.58416 9.88524 2.51801L10.5182 1.88401C11.5845 0.78361 13.0215 0.118606 14.5504 0.0180814C16.0794 -0.0824429 17.5911 0.388684 18.7922 1.34001C19.4347 1.87276 19.9578 2.5348 20.3276 3.28306C20.6973 4.03132 20.9054 4.84904 20.9382 5.68301C20.9734 6.5134 20.8359 7.34204 20.5345 8.1166C20.2332 8.89116 19.7744 9.59478 19.1872 10.183L18.1872 11.183C17.0602 12.3076 15.5334 12.9398 13.9412 12.941C13.8552 12.941 13.7692 12.939 13.6832 12.935C12.8496 12.9024 12.0322 12.6948 11.284 12.3258C10.5358 11.9568 9.87353 11.4346 9.34024 10.793ZM18.7572 16C18.0686 15.9984 17.3864 16.1332 16.7502 16.3967C16.1139 16.6601 15.5361 17.047 15.0502 17.535C13.6383 18.9551 11.9586 20.0809 10.1086 20.8473C8.25851 21.6138 6.27477 22.0055 4.27224 22H3.12224C2.90034 22.0003 2.68334 21.9348 2.49872 21.8117C2.3141 21.6886 2.17016 21.5135 2.08513 21.3086C2.00011 21.1036 1.97782 20.878 2.0211 20.6604C2.06438 20.4427 2.17127 20.2429 2.32824 20.086L3.02824 19.386C4.76451 19.2695 6.39928 18.526 7.62824 17.294L10.6822 14.24C9.57313 13.7473 8.59067 13.0086 7.80924 12.08C7.37251 11.5564 7.00855 10.9761 6.72724 10.355L3.70024 13.379C2.46784 14.6077 1.72431 16.2426 1.60824 17.979L0.908239 18.679C0.473688 19.1163 0.178364 19.6724 0.0595214 20.2773C-0.0593214 20.8823 0.00363955 21.5088 0.240462 22.078C0.477285 22.6471 0.877362 23.1334 1.39023 23.4755C1.90309 23.8176 2.50577 24.0001 3.12224 24H4.27224C6.5374 24.0062 8.7813 23.563 10.8741 22.6962C12.9668 21.8293 14.8669 20.5561 16.4642 18.95C16.9177 18.4966 17.4954 18.1878 18.1244 18.0627C18.7533 17.9375 19.4053 18.0017 19.9978 18.247C20.5903 18.4923 21.0968 18.9077 21.4532 19.4408C21.8096 19.9739 22 20.6007 22.0002 21.242V23C22.0002 23.2652 22.1056 23.5196 22.2931 23.7071C22.4807 23.8947 22.735 24 23.0002 24C23.2655 24 23.5198 23.8947 23.7073 23.7071C23.8949 23.5196 24.0002 23.2652 24.0002 23V21.242C23.9984 19.8521 23.4454 18.5197 22.4625 17.5371C21.4796 16.5544 20.1471 16.0016 18.7572 16Z" fill="white"/>
</g>
<defs>
<clipPath id="clip0_1386_1587">
<rect width="24" height="24" fill="white"/>
</clipPath>
</defs>
</svg>
