<svg width="20" height="18" viewBox="0 0 20 18" fill="none" xmlns="http://www.w3.org/2000/svg">
<path d="M9.54361 10.5135C5.99217 10.8024 3.28647 13.5032 3.33361 16.7123V16.875C3.33361 17.4963 3.89326 18 4.58361 18C5.27397 18 5.83361 17.4963 5.83361 16.875V16.6673C5.79604 14.6969 7.41166 13.0167 9.58362 12.7673C11.8763 12.5627 13.9192 14.0695 14.1466 16.133C14.16 16.255 14.1668 16.3774 14.1669 16.5V16.875C14.1669 17.4963 14.7266 18 15.4169 18C16.1073 18 16.6669 17.4963 16.6669 16.875V16.5C16.6629 13.1826 13.6714 10.4962 9.98541 10.4999C9.83803 10.5001 9.69069 10.5046 9.54361 10.5135Z" fill="white"/>
<path d="M10.0003 9C12.7617 9 15.0003 6.98527 15.0003 4.5C15.0003 2.01473 12.7617 0 10.0003 0C7.2389 0 5.00031 2.01473 5.00031 4.5C5.00304 6.98425 7.24003 8.9975 10.0003 9ZM10.0003 2.25C11.381 2.25 12.5003 3.25737 12.5003 4.5C12.5003 5.74263 11.381 6.75 10.0003 6.75C8.6196 6.75 7.50031 5.74263 7.50031 4.5C7.50031 3.25737 8.6196 2.25 10.0003 2.25Z" fill="white"/>
</svg>
