<svg width="20" height="20" viewBox="0 0 20 20" fill="none" xmlns="http://www.w3.org/2000/svg">
<g clip-path="url(#clip0_795_1614)">
<path d="M15.455 10.6358C15.475 9.0775 16.2917 7.63834 17.6192 6.82251C16.7783 5.62084 15.4192 4.88667 13.9533 4.84084C12.4108 4.67917 10.9158 5.76334 10.13 5.76334C9.32918 5.76334 8.11918 4.85667 6.81585 4.88334C5.10168 4.93917 3.54168 5.89 2.70752 7.38917C0.931682 10.4642 2.25585 14.9842 3.95752 17.47C4.80918 18.6875 5.80335 20.0467 7.10585 19.9992C8.38002 19.9467 8.85585 19.1867 10.3933 19.1867C11.9167 19.1867 12.3633 19.9992 13.6917 19.9683C15.0583 19.9458 15.92 18.7458 16.7417 17.5167C17.3533 16.6492 17.8242 15.6908 18.1358 14.6767C16.5125 13.99 15.4567 12.3992 15.455 10.6358Z" fill="black"/>
<path d="M12.9459 3.20583C13.6909 2.31083 14.0584 1.16083 13.9692 0C12.8309 0.12 11.7784 0.664167 11.0234 1.52417C10.2775 2.37333 9.8992 3.48333 9.97254 4.61167C11.1267 4.62333 12.2225 4.105 12.9459 3.20583Z" fill="black"/>
</g>
<defs>
<clipPath id="clip0_795_1614">
<rect width="20" height="20" fill="white"/>
</clipPath>
</defs>
</svg>
