<svg width="18" height="18" viewBox="0 0 18 18" fill="none" xmlns="http://www.w3.org/2000/svg">
<g clip-path="url(#clip0_1061_1675)">
<path d="M9.35927 10.6988V8.2395H17.646C17.727 8.66775 17.769 9.17475 17.769 9.72375C17.769 11.5688 17.265 13.8503 15.639 15.4755C14.058 17.1217 12.0383 18 9.36227 18C4.40177 18 0.231018 13.9598 0.231018 9C0.231018 4.04025 4.40177 0 9.36227 0C12.1065 0 14.061 1.077 15.5295 2.48025L13.794 4.215C12.741 3.22725 11.3138 2.45925 9.35927 2.45925C5.73752 2.45925 2.90477 5.37825 2.90477 9C2.90477 12.6217 5.73752 15.5408 9.35927 15.5408C11.7083 15.5408 13.0463 14.5972 13.9035 13.74C14.5988 13.0448 15.0563 12.0518 15.2363 10.6957L9.35927 10.6988Z" fill="black"/>
</g>
<defs>
<clipPath id="clip0_1061_1675">
<rect width="18" height="18" fill="white"/>
</clipPath>
</defs>
</svg>
