<svg width="24" height="24" viewBox="0 0 24 24" fill="none" xmlns="http://www.w3.org/2000/svg">
<g clip-path="url(#clip0_1177_2633)">
<path d="M21 15H9.83C9.03 15 8.28 14.69 7.71 14.12L6.29 12.71C6.1 12.52 6 12.27 6 12C6 11.73 6.11 11.48 6.29 11.29L7.71 9.88C8.28 9.31 9.03 9 9.83 9H21C22.65 9 24 10.35 24 12C24 13.65 22.65 15 21 15ZM18 6H9.83C9.03 6 8.28 5.69 7.71 5.12L6.29 3.71C6.1 3.52 6 3.27 6 3C6 2.73 6.11 2.48 6.29 2.29L7.71 0.88C8.28 0.31 9.03 0 9.83 0H18C19.65 0 21 1.35 21 3C21 4.65 19.65 6 18 6ZM16 24H9.83C9.03 24 8.28 23.69 7.71 23.12L6.29 21.71C6.1 21.52 6 21.27 6 21C6 20.73 6.11 20.48 6.29 20.29L7.71 18.88C8.28 18.31 9.03 18 9.83 18H16C17.65 18 19 19.35 19 21C19 22.65 17.65 24 16 24ZM2 19C0.9 19 0 19.9 0 21C0 22.1 0.9 23 2 23C3.1 23 4 22.1 4 21C4 19.9 3.1 19 2 19ZM2 10C0.9 10 0 10.9 0 12C0 13.1 0.9 14 2 14C3.1 14 4 13.1 4 12C4 10.9 3.1 10 2 10ZM2 1C0.9 1 0 1.9 0 3C0 4.1 0.9 5 2 5C3.1 5 4 4.1 4 3C4 1.9 3.1 1 2 1Z" fill="#A4CA38"/>
</g>
<defs>
<clipPath id="clip0_1177_2633">
<rect width="24" height="24" fill="white"/>
</clipPath>
</defs>
</svg>
