<svg width="15" height="15" viewBox="0 0 15 15" fill="none" xmlns="http://www.w3.org/2000/svg">
<g clip-path="url(#clip0_736_846)">
<path d="M4.375 6.875H2.5C1.11875 6.875 0 5.75625 0 4.375V2.5C0 1.11875 1.11875 0 2.5 0H4.375C5.75625 0 6.875 1.11875 6.875 2.5V4.375C6.875 5.75625 5.75625 6.875 4.375 6.875ZM12.5 15H10.625C9.24375 15 8.125 13.8813 8.125 12.5V10.625C8.125 9.24375 9.24375 8.125 10.625 8.125H12.5C13.8813 8.125 15 9.24375 15 10.625V12.5C15 13.8813 13.8813 15 12.5 15ZM4.375 15H2.5C1.11875 15 0 13.8813 0 12.5V10.625C0 9.24375 1.11875 8.125 2.5 8.125H4.375C5.75625 8.125 6.875 9.24375 6.875 10.625V12.5C6.875 13.8813 5.75625 15 4.375 15ZM13.2813 0C12.4438 0 11.7125 0.65625 11.5563 1.525C11.4 0.65625 10.6813 0 9.84375 0C8.89375 0 8.125 0.84375 8.125 1.8875C8.125 3.375 10.0625 5.14375 11.0313 5.91875C11.3438 6.16875 11.7875 6.16875 12.1 5.91875C13.0625 5.14375 15.0063 3.375 15.0063 1.8875C15.0063 0.84375 14.2375 0 13.2875 0L13.2813 0Z" fill="#E51D35"/>
</g>
<defs>
<clipPath id="clip0_736_846">
<rect width="15" height="15" fill="white"/>
</clipPath>
</defs>
</svg>
