<svg width="18" height="18" viewBox="0 0 18 18" fill="none" xmlns="http://www.w3.org/2000/svg">
<g clip-path="url(#clip0_743_1035)">
<path d="M13.125 0.687744C12.2805 0.70088 11.4543 0.936634 10.7301 1.3712C10.0058 1.80576 9.40902 2.42375 9 3.16274C8.59098 2.42375 7.9942 1.80576 7.26993 1.3712C6.54565 0.936634 5.71954 0.70088 4.875 0.687744C3.5287 0.746237 2.26028 1.33518 1.34684 2.32592C0.433394 3.31665 -0.0508137 4.62864 -7.64383e-07 5.97524C-7.64383e-07 11.0565 8.217 16.9252 8.5665 17.1742L9 17.481L9.4335 17.1742C9.783 16.9267 18 11.0565 18 5.97524C18.0508 4.62864 17.5666 3.31665 16.6532 2.32592C15.7397 1.33518 14.4713 0.746237 13.125 0.687744Z" fill="#919191"/>
</g>
<defs>
<clipPath id="clip0_743_1035">
<rect width="18" height="18" fill="white"/>
</clipPath>
</defs>
</svg>
