<svg width="18" height="18" viewBox="0 0 18 18" fill="none" xmlns="http://www.w3.org/2000/svg">
<g clip-path="url(#clip0_745_1066)">
<path d="M0.000211282 8.98958C-0.00744338 10.9129 1.5455 12.4782 3.46883 12.4859C4.35459 12.4894 5.20843 12.1552 5.85652 11.5514L11.0461 13.8946C11.0101 14.0886 10.9903 14.2853 10.987 14.4826C10.9809 16.4192 12.5457 17.994 14.4823 18.0001C16.4189 18.0063 17.9937 16.4414 17.9998 14.5048C18.006 12.5682 16.441 10.9934 14.5045 10.9873C13.3475 10.9836 12.2632 11.5509 11.6065 12.5035L6.73069 10.302C7.07701 9.46571 7.07835 8.5264 6.73445 7.68917L11.6035 5.47637C12.6999 7.06212 14.8742 7.45875 16.4599 6.36235C18.0457 5.26594 18.4423 3.09167 17.3459 1.50592C16.2495 -0.0798202 14.0752 -0.476458 12.4894 0.619949C11.5451 1.27291 10.9822 2.34846 10.9839 3.49659C10.9871 3.69421 11.0072 3.89116 11.0439 4.08537L5.86775 6.43745C4.46537 5.12061 2.261 5.18996 0.944157 6.59234C0.334699 7.24144 -0.00308935 8.09922 0.000211282 8.98958Z" fill="#919191"/>
</g>
<defs>
<clipPath id="clip0_745_1066">
<rect width="18" height="18" fill="white"/>
</clipPath>
</defs>
</svg>
