<svg width="16" height="16" viewBox="0 0 16 16" fill="none" xmlns="http://www.w3.org/2000/svg">
<g clip-path="url(#clip0_743_1018)">
<path d="M12.0795 12.309C12.3783 13.2327 11.3181 13.9975 10.5358 13.4225L8.73928 12.1021C8.38693 11.8431 7.90719 11.8431 7.55484 12.1021L5.75828 13.4225C4.97599 13.9975 3.9158 13.2327 4.21461 12.309L4.91409 10.1466C5.04698 9.73579 4.90121 9.28609 4.5526 9.03137L2.72655 7.69713C1.94548 7.12643 2.34916 5.8897 3.31651 5.8897H5.55332C5.98789 5.8897 6.37271 5.60904 6.50549 5.19526L7.19489 3.04698C7.49202 2.12106 8.8021 2.12106 9.09924 3.04698L9.78863 5.19526C9.92142 5.60904 10.3062 5.8897 10.7408 5.8897H12.9773C13.9446 5.8897 14.3483 7.12636 13.5673 7.69709L11.7415 9.03137C11.3929 9.28609 11.2471 9.73576 11.38 10.1465L12.0795 12.309Z" fill="#BEBEBE"/>
</g>
<defs>
<clipPath id="clip0_743_1018">
<rect x="0.294121" width="15.7059" height="15.7059" fill="white"/>
</clipPath>
</defs>
</svg>
