<svg width="24" height="24" viewBox="0 0 24 24" fill="none" xmlns="http://www.w3.org/2000/svg">
<g clip-path="url(#clip0_736_830)">
<path d="M18.513 20.3667C18.8118 21.2905 17.7516 22.0552 16.9693 21.4803L12.5922 18.2633C12.2399 18.0043 11.7601 18.0043 11.4078 18.2633L7.03073 21.4803C6.24843 22.0552 5.18824 21.2904 5.48705 20.3667L7.17734 15.1414C7.31022 14.7306 7.16445 14.2809 6.81584 14.0262L2.41067 10.8074C1.6296 10.2367 2.03328 9.00001 3.00063 9.00001H8.42169C8.85625 9.00001 9.24108 8.71935 9.37386 8.30557L11.0478 3.08915C11.345 2.16323 12.6551 2.16323 12.9522 3.08915L14.6262 8.30557C14.7589 8.71935 15.1438 9.00001 15.5783 9.00001H20.9987C21.966 9.00001 22.3697 10.2367 21.5887 10.8074L17.1841 14.0262C16.8355 14.2809 16.6898 14.7306 16.8227 15.1413L18.513 20.3667Z" fill="#7B61FF"/>
</g>
<defs>
<clipPath id="clip0_736_830">
<rect width="24" height="24" fill="white"/>
</clipPath>
</defs>
</svg>
